<svg width="1024" height="1024" viewBox="0 0 1024 1024" fill="none" xmlns="http://www.w3.org/2000/svg">
<path d="M898.596 253.155C913.429 273.084 926.681 294.292 938.14 316.341C940.897 321.908 943.651 327.472 946.402 333.025C948.881 338.708 951.359 344.38 953.83 350.044C955.113 352.857 956.204 355.745 957.287 358.631L960.564 367.275C961.628 370.164 962.79 373.012 963.765 375.924L966.61 384.673C970.587 396.268 973.597 408.089 976.653 419.796C977.954 425.705 979.25 431.593 980.544 437.459C981.244 440.38 981.67 443.349 982.193 446.294C982.694 449.242 983.195 452.184 983.696 455.121C984.17 458.061 984.744 460.976 985.13 463.916C985.491 466.858 985.849 469.793 986.207 472.722C986.563 475.651 986.916 478.571 987.272 481.484C987.436 482.945 987.644 484.397 987.776 485.855L988.102 490.225C988.53 496.051 988.956 501.844 989.379 507.602C989.543 513.374 989.705 519.11 989.867 524.812C989.201 488.336 984.488 451.961 975.567 416.657C982.182 443.139 985.852 468.157 987.452 493.388C987.617 496.546 987.781 499.707 987.945 502.873L988.18 507.623C988.22 508.666 988.217 509.709 988.215 510.754C988.212 511.301 988.209 511.848 988.215 512.395C988.207 518.771 988.22 525.186 988.126 531.672C987.759 538.147 987.39 544.705 987.013 551.374C986.889 554.71 986.38 558.048 986.051 561.43C985.674 564.806 985.294 568.215 984.911 571.658C984.669 567.447 984.771 562.079 985.019 556.254C985.208 550.428 985.157 544.12 985.264 538.071C985.264 537.107 985.275 536.145 985.289 535.194C985.318 533.17 985.345 531.19 985.224 529.279C985.086 526.471 984.925 523.817 984.728 521.406C984.332 516.588 983.788 512.751 982.971 510.622C980.385 444.82 964.296 379.551 936.235 320.024C922.181 290.283 905.224 261.899 885.393 235.759C865.596 209.601 843.138 185.555 818.545 164.199C840.694 178.041 855.597 193.415 867.183 208.634C868.641 210.534 870.08 212.409 871.503 214.265C872.923 216.122 874.316 217.965 875.582 219.894C878.169 223.68 880.718 227.409 883.251 231.117C884.533 232.949 885.81 234.776 887.088 236.603L890.768 242.189C893.261 245.891 895.845 249.539 898.596 253.155Z" fill="#C1512D"/>
<path d="M945.775 712.263C948.192 706.106 950.577 700.032 952.937 694.016C953.519 692.509 954.139 691.019 954.683 689.508C955.201 687.985 955.715 686.463 956.23 684.946C957.259 681.912 958.283 678.889 959.304 675.873C958.281 679.107 957.257 682.324 956.246 685.512C955.726 687.101 955.209 688.686 954.694 690.257C954.101 691.801 953.511 693.334 952.927 694.856C950.564 700.935 948.179 706.796 945.775 712.263Z" fill="#C1512D"/>
<path d="M165.13 263.243L159.049 272.07L156.004 276.465C154.985 277.926 154.099 279.472 153.14 280.968C151.245 283.969 149.359 286.96 147.484 289.935C145.619 292.91 143.65 295.796 141.984 298.835C143.526 295.693 145.423 292.745 147.244 289.733C149.114 286.745 150.989 283.746 152.867 280.736C153.837 279.249 154.735 277.713 155.775 276.269L158.882 271.928L165.13 263.243Z" fill="#C1512D"/>
<path d="M763.533 148.038C756.886 144.145 749.872 140.806 742.955 137.082C692.412 107.257 635.326 86.4231 575.01 77.6336C607.796 82.2223 641.378 89.7157 673.663 101.28C705.908 112.813 736.742 128.587 763.533 148.038Z" fill="#C1512D"/>
<path d="M810.258 191.131C832.741 210.399 853.165 232.421 870.582 256.119C888.018 279.807 902.437 305.148 913.468 330.746C902.121 305.305 887.671 280.327 870.337 256.761C853.014 233.192 832.813 211.048 810.258 191.131Z" fill="#C1512D"/>
<path d="M136.539 665.902C137.032 665.492 137.814 666.295 138.703 667.583C139.414 669.025 140.139 670.283 140.88 671.274C147.81 691.707 156.182 711.703 166.192 730.874C163.352 726.318 159.962 722.47 157.276 717.666C155.875 715.014 154.953 712.449 153.975 710.161C153.056 707.844 152.218 705.732 151.432 703.746C150.669 701.752 149.958 699.887 149.265 698.077C148.594 696.258 148.061 694.444 147.43 692.65C146.202 689.05 144.857 685.412 143.046 681.187C141.244 676.957 139.376 671.983 136.539 665.902Z" fill="#C1512D"/>
<path d="M174.793 250.604C175.019 250.156 175.251 249.695 175.485 249.237C178.457 245.333 181.316 241.421 184.504 237.802C184.935 237.414 185.334 237.053 185.811 236.622C183.987 238.944 182.003 241.138 180.239 243.528C178.428 245.877 176.614 248.235 174.793 250.604Z" fill="#C1512D"/>
<path d="M128.383 639.571C129.353 638.841 130.331 638.097 130.719 636.057C131.942 642.02 133.788 647.797 135.375 653.655C136.24 656.563 136.9 659.54 137.927 662.393L140.799 671.029C140.063 669.749 139.349 668.529 138.703 667.583C137.808 665.756 136.924 663.614 136.032 661.31C135.208 658.982 134.472 656.457 133.656 653.93C132.853 651.397 132.018 648.845 131.123 646.412C130.207 643.987 129.267 641.67 128.383 639.571Z" fill="#C1512D"/>
<path d="M154.596 371.406C157.737 364.441 158.468 357.279 159.454 353.722C169.776 336.588 180.832 320.109 194.889 301.535C196.57 298.313 200.936 292.07 204.352 285.6C207.788 282.849 211.307 279.769 214.89 276.447C181.988 315.417 155.827 361.809 139.121 413.298C139.555 411.536 140.137 409.814 140.719 408.087C141.293 406.357 141.872 404.622 142.449 402.881C143.616 399.402 144.788 395.902 145.97 392.375C147.358 388.921 148.754 385.445 150.163 381.937C151.629 378.455 152.93 374.869 154.596 371.406Z" fill="#C1512D"/>
<path d="M906.393 707.27C899.291 724.366 889.79 741.158 879.37 757.659C876.633 761.704 873.882 765.764 871.125 769.836L869.053 772.886C868.336 773.886 867.574 774.856 866.835 775.842L862.368 781.74C856.583 789.745 850.038 797.193 843.744 804.802C817.661 834.547 788.439 860.783 760.176 883.492C778.195 872.286 797.21 858.62 814.535 843.088C831.966 827.684 848.044 810.9 861.783 795.002C888.925 762.911 906.388 734.497 913.784 730.984C917.516 729.23 915.953 735.061 910.955 745.847C908.32 751.16 904.564 757.552 900.266 764.848C898.113 768.497 895.464 772.148 892.856 776.071C891.525 778.014 890.167 780.002 888.779 782.031C888.084 783.042 887.381 784.063 886.672 785.092C885.939 786.105 885.153 787.091 884.382 788.104C872.329 804.503 857.108 821.667 841.556 837.33C837.57 841.148 833.62 844.934 829.74 848.653C827.841 850.552 825.82 852.285 823.842 854.015C821.867 855.753 819.919 857.472 817.998 859.164C816.085 860.861 814.198 862.535 812.347 864.181C810.515 865.849 808.556 867.304 806.732 868.837C803.065 871.876 799.548 874.789 796.232 877.54C803.951 872.504 803.951 872.504 811.647 867.487C807.783 870.012 803.927 872.526 800.351 875.172C798.562 876.495 796.843 877.85 795.224 879.257C793.564 880.609 791.971 881.973 790.53 883.433C792.494 882.242 794.768 881.003 797.026 879.437C799.298 877.877 801.723 876.209 804.234 874.487C806.745 872.747 809.343 870.944 811.957 869.133C814.603 867.35 817.052 865.302 819.585 863.44C822.107 861.551 824.575 859.703 826.927 857.943C829.298 856.194 831.597 854.583 833.591 852.975C837.657 849.841 841.122 847.392 843.523 846.133C840.179 850.582 836.921 855.16 833.443 859.546C838.398 856.119 843.574 851.924 849.176 847.413C850.553 846.265 852.016 845.15 853.379 843.902C854.745 842.649 856.13 841.38 857.534 840.092C860.326 837.481 863.19 834.797 866.113 832.06C869.091 829.352 871.853 826.345 874.714 823.324C877.56 820.285 880.451 817.2 883.369 814.085C886.298 810.97 888.944 807.575 891.773 804.28C894.554 800.941 897.348 797.586 900.142 794.232C902.777 790.748 905.41 787.264 908.032 783.796C909.346 782.055 910.659 780.32 911.966 778.593L913.924 776.001L915.749 773.341C918.19 769.795 920.604 766.284 922.983 762.825C925.379 759.362 927.785 755.973 929.884 752.497C932.072 749.061 934.214 745.696 936.3 742.417C938.401 739.137 940.533 735.982 942.341 732.797C946.091 726.497 949.702 720.645 953.121 715.407C938.477 741.808 921.399 768.224 901.46 793.658C881.577 819.126 858.66 843.466 832.976 865.787C807.3 888.113 778.828 908.398 748.019 925.776C717.108 942.971 683.841 957.121 649.055 967.645C646.902 968.369 644.709 968.964 642.508 969.536L635.912 971.3C631.498 972.429 627.13 973.761 622.668 974.731C618.209 975.707 613.744 976.685 609.274 977.663C607.035 978.134 604.809 978.683 602.556 979.091L595.78 980.249C591.258 981.022 586.737 981.795 582.208 982.569L568.522 984.283C559.404 985.601 550.189 986.03 540.99 986.787L537.538 987.047L534.078 987.145L527.154 987.342C522.535 987.431 517.914 987.694 513.29 987.636L499.419 987.364L492.478 987.206L485.551 986.736L471.693 985.788C467.082 985.374 462.494 984.747 457.891 984.233C448.663 983.338 439.555 981.649 430.426 980.127C425.84 979.452 421.338 978.391 416.819 977.405L403.271 974.428L389.899 970.809C385.461 969.551 380.955 968.499 376.609 966.969C372.228 965.535 367.849 964.102 363.476 962.67C361.302 961.924 359.082 961.297 356.945 960.452L350.51 957.983C346.226 956.332 341.942 954.682 337.666 953.035C333.414 951.327 329.272 949.364 325.08 947.539C320.919 945.642 316.681 943.913 312.601 941.871C308.527 939.807 304.461 937.746 300.401 935.689L294.319 932.595C292.304 931.543 290.361 930.36 288.381 929.25C284.441 926.99 280.507 924.734 276.581 922.481C272.602 920.312 268.902 917.701 265.079 915.309C261.287 912.86 257.502 910.413 253.727 907.975C250.073 905.353 246.427 902.734 242.79 900.123C239.174 897.477 235.458 894.982 232.031 892.12C200.249 868.021 171.501 840.785 147.062 810.636C144.02 806.864 140.913 803.14 137.931 799.335C135.053 795.444 132.183 791.567 129.319 787.695L125.024 781.88L121.004 775.898C118.323 771.908 115.644 767.925 112.974 763.951C102.87 747.698 93.1696 731.251 85.0279 714.154C76.4823 697.23 69.5319 679.716 62.9516 662.161C56.9235 644.442 51.3154 626.612 47.2683 608.505C46.2403 603.984 45.1407 599.476 44.1804 594.947C43.3464 590.393 42.5141 585.847 41.684 581.31C39.8371 572.24 38.9059 563.087 37.6088 553.974C36.9039 549.418 36.6655 544.842 36.2249 540.275C35.8318 535.697 35.4392 531.13 35.0477 526.571C34.8674 521.996 34.6874 517.431 34.5077 512.875C34.3886 508.316 34.0267 503.743 34.1631 499.195C34.2641 495.759 34.4452 491.72 34.6993 487.191C34.8359 484.928 34.9808 482.54 35.132 480.045C35.3255 477.556 35.6787 474.971 35.9765 472.282C36.6116 466.915 37.3084 461.17 38.1043 455.172C39.18 449.215 40.303 442.999 41.4541 436.626C46.4985 411.222 54.696 384.016 63.1559 361.991C76.9587 322.6 95.5882 284.783 118.589 249.709L127.511 236.759C129.015 234.611 130.453 232.415 132.014 230.311L136.772 224.052L146.319 211.544L156.404 199.475L161.459 193.44L166.767 187.641L177.402 176.039C181.113 172.331 184.82 168.623 188.523 164.921L194.095 159.36C195.997 157.557 197.953 155.814 199.88 154.038C204.099 150.373 208.316 146.712 212.528 143.055C216.917 139.609 221.301 136.165 225.685 132.727C227.9 131.038 230.045 129.249 232.324 127.653L239.152 122.844L245.993 118.056C248.281 116.471 250.536 114.833 252.916 113.394L267.054 104.537L270.597 102.339L274.232 100.299L281.512 96.2355C291.129 90.6444 301.212 85.9561 311.181 81.0413C351.58 62.5301 394.485 49.3054 438.823 42.5961C527.372 28.838 621.337 39.6133 709.245 76.299C713.64 78.0773 718.059 80.3649 722.397 82.5852C726.708 84.8674 730.93 87.112 734.635 89.4778C741.991 94.3306 747.693 98.7603 749.7 101.369C751.713 103.979 750.04 104.769 742.732 102.436C739.062 101.309 734.059 99.2426 727.258 96.54C723.825 95.2574 719.969 93.762 715.655 92.0375C711.325 90.3508 706.621 88.2383 701.207 86.3872C665.656 73.4967 628.706 64.2034 591.126 58.9222C553.522 53.7838 515.314 52.9269 477.44 56.0498C479.571 55.1283 483.451 54.3927 488.337 53.7595C490.778 53.4415 493.47 53.1506 496.318 52.8757C499.174 52.7006 502.186 52.5955 505.263 52.4716C508.343 52.3557 511.482 52.2397 514.597 52.1212C516.155 52.0592 517.704 51.9973 519.237 51.9353C520.768 51.8868 522.282 51.9218 523.767 51.903C529.703 51.8652 535.17 51.7064 539.446 51.259C511.275 48.9337 485.292 49.6503 459.702 52.3691C434.115 55.1552 408.835 60.0322 382.173 67.9756C417.733 57.3674 454.464 50.8225 491.562 48.454C485.774 48.8932 479.946 49.3324 474.083 49.7743C468.241 50.3994 462.375 51.1728 456.471 51.8841C450.554 52.4985 444.678 53.6005 438.752 54.6002C432.835 55.6268 426.864 56.5402 420.963 57.9521C397.179 62.7349 373.441 69.8187 350.087 78.5758C303.273 95.9069 258.577 121.798 219.35 153.785C205.099 165.587 190.312 175.101 175.557 187.892C171.879 191.09 168.077 194.353 164.366 197.947C160.748 201.628 157.091 205.519 153.419 209.685C149.662 213.778 146.211 218.418 142.735 223.365C139.299 228.344 135.654 233.482 132.577 239.408C153.149 213.387 176.559 189.395 202.251 168.022C228.005 146.717 256.033 128.058 285.665 112.394C315.296 96.7259 346.533 84.0536 378.711 74.5879C410.886 65.1033 444.02 58.8305 477.44 56.0498C477.206 56.1441 476.925 56.2303 476.777 56.3273C506.549 53.5412 535.197 53.7272 563.289 56.5645C591.388 59.3829 618.963 64.6507 646.725 72.4674C642.376 71.3762 638.048 70.1258 633.662 69.1881C629.278 68.2585 624.915 67.337 620.615 66.4263C612.068 64.3973 603.64 63.147 595.914 61.436C601.047 62.53 606.175 63.6214 611.297 64.71C616.387 65.936 621.434 67.3317 626.489 68.625L634.063 70.6027C636.585 71.2629 639.051 72.1198 641.546 72.8688C646.517 74.4155 651.486 75.9595 656.452 77.5034C676.081 84.3286 695.452 91.6899 714.006 100.76C732.752 109.401 750.641 119.732 768.109 130.598L780.946 139.172C783.066 140.633 785.265 141.972 787.313 143.529L793.513 148.123C797.627 151.211 801.812 154.202 805.856 157.376L817.774 167.165C794.631 149.657 769.796 133.91 743.584 120.335C717.35 106.787 689.745 95.5242 661.172 86.662C604.055 68.916 542.836 61.5842 482.339 66.2915C421.858 70.8884 362.234 87.438 308.603 114.529C254.928 141.525 207.36 179.083 169.965 223.225C193.311 200.507 220.563 174.478 250.321 152.928C254.088 150.314 257.841 147.711 261.57 145.125C263.44 143.837 265.305 142.554 267.161 141.274C269.077 140.086 270.985 138.903 272.882 137.725C276.7 135.397 280.48 133.091 284.218 130.814C287.955 128.537 291.846 126.638 295.588 124.614C299.363 122.652 303.058 120.68 306.765 118.907C310.516 117.226 314.213 115.612 317.842 114.081C321.491 112.594 324.985 110.996 328.558 109.837C332.112 108.633 335.583 107.517 338.962 106.499C314.787 116.724 291.404 128.914 269.166 143.055C246.982 157.279 225.93 173.382 206.298 191.214C186.669 209.043 168.462 228.605 151.958 249.69C135.411 270.753 120.893 293.543 108.167 317.43C109.851 313.773 111.514 310.157 113.168 306.563C114.809 302.955 116.701 299.503 118.414 295.946C99.8665 324.147 85.3262 356.255 74.9273 389.586C64.5325 422.965 58.5569 457.549 55.4081 491.152C54.8918 497.18 54.0921 503.134 53.9364 509.219C54.1204 503.226 54.9172 497.196 55.4081 491.152C61.4939 429.332 80.1051 370.209 108.167 317.43C96.7487 342.383 85.3343 369.14 75.0731 402.406C75.972 400.221 76.8878 397.909 77.8196 395.487C78.2955 394.277 78.7344 393.029 79.2506 391.776C79.7804 390.531 80.3217 389.262 80.8717 387.969C83.0528 382.798 85.3065 377.253 87.6101 371.462C90.1467 365.769 92.7881 359.844 95.4836 353.795C96.1524 352.286 96.825 350.766 97.4991 349.243C98.2442 347.751 98.9919 346.253 99.741 344.752C101.242 341.755 102.75 338.743 104.259 335.731C119.304 303.777 137.974 273.463 160.023 246.316C126.762 289.005 102.799 337.644 89.94 384.415C91.5562 380.171 93.0521 375.876 94.7569 371.656C96.5434 367.469 98.3315 363.276 100.124 359.078L102.8 352.776C103.673 350.666 104.756 348.645 105.722 346.576C107.706 342.459 109.692 338.336 111.678 334.208C113.567 330.037 115.925 326.09 118.061 322.034C120.26 318.009 122.4 313.951 124.639 309.944L131.776 298.161L135.341 292.268C136.513 290.293 137.879 288.44 139.14 286.518L146.844 275.094L148.779 272.245L150.843 269.489L154.971 263.976C157.757 260.328 160.392 256.569 163.302 253.026L172.078 242.447C173.549 240.696 174.983 238.912 176.484 237.187L181.123 232.135C184.214 228.773 187.305 225.415 190.39 222.06C193.575 218.8 196.867 215.653 200.098 212.457C203.358 209.294 206.511 206.028 209.968 203.091C206.252 206.408 202.914 210.113 199.414 213.646L194.219 219.002L191.621 221.678L189.153 224.472L179.307 235.676L176.858 238.481L174.538 241.399L169.904 247.233C163.563 254.885 157.932 263.073 152.144 271.127C150.662 273.116 149.323 275.204 147.992 277.298L143.969 283.554C141.339 287.755 138.483 291.816 136.112 296.173C100.807 352.515 77.3898 417.379 70.1392 485.278C70.2181 482.68 70.5695 480.078 70.8131 477.494C70.078 482.635 69.8361 487.824 69.4572 492.979C67.0828 519.541 67.1071 546.483 69.6445 573.337C70.3938 579.343 71.2097 585.314 72.0811 591.242C73.174 597.143 74.421 602.987 75.6535 608.802L76.599 613.153L77.7609 617.451L80.1212 626.009C80.9285 628.852 81.6865 631.697 82.5525 634.507L85.3887 642.866C86.4401 646.713 87.4829 650.531 88.5216 654.333C87.0817 650.844 85.8869 648.276 85.4623 648.354C85.2494 648.392 85.2303 649.095 85.4682 650.674C85.729 652.251 86.1281 654.74 87.1692 658.232C94.7833 688.443 107.825 718.549 124.453 747.717C128.406 755.132 133.156 762.167 137.578 769.467C139.741 773.147 142.293 776.602 144.672 780.185C147.078 783.753 149.495 787.334 151.92 790.928C162.122 804.95 172.563 819.164 184.047 832.952C185.537 834.77 187.119 836.651 188.781 838.586C190.444 840.521 192.155 842.539 194.103 844.449C197.918 848.345 202.038 852.425 206.387 856.647C210.819 860.778 215.691 864.833 220.622 869.098C221.862 870.155 223.112 871.222 224.37 872.294C225.68 873.302 227 874.318 228.328 875.342C230.988 877.373 233.68 879.432 236.398 881.509C241.658 886.839 245.172 888.698 248.416 890.18C250.841 891.843 253.285 893.516 255.737 895.197C258.194 896.868 260.608 898.611 263.176 900.12C269.295 904.016 275.307 908.112 281.534 911.787C287.842 915.331 294.106 918.885 300.468 922.061C294.327 918.6 288.076 915.077 281.779 911.529C275.528 907.894 269.414 903.909 263.176 900.12C260.859 898.684 258.674 897.073 256.467 895.502C254.257 893.936 252.053 892.376 249.86 890.821C251.601 891.581 253.403 892.333 255.58 893.481C256.669 894.052 257.852 894.726 259.167 895.545C260.471 896.38 261.939 897.321 263.626 898.401C243.232 884.101 223.834 868.018 205.797 850.302C187.746 832.601 171.059 813.25 156.229 792.421C126.439 750.861 103.399 703.939 88.5216 654.333C91.1614 660.013 94.5982 668.118 96.2044 671.414L90.512 657.268C89.5207 654.918 88.6862 652.515 87.8722 650.103L85.3887 642.866C76.6626 610.591 71.1782 577.357 69.6084 543.848C69.8892 548.841 70.7274 553.621 71.4215 558.164C72.1784 562.704 72.897 567.005 73.8646 570.979C69.8382 523.677 72.4961 475.578 83.2471 429.044C84.5763 423.226 85.7805 417.374 87.5066 411.656C89.1494 405.917 90.6238 400.121 92.4046 394.422L98.0674 377.409C98.9485 374.548 100.118 371.794 101.184 369L104.437 360.639C105.543 357.86 106.559 355.039 107.74 352.294L111.409 344.097L115.081 335.898C115.701 334.537 116.28 333.152 116.94 331.807L118.978 327.806L127.153 311.785L136.112 296.173L138.305 292.57L140.674 289.078L145.411 282.107L150.147 275.145C151.729 272.83 153.499 270.645 155.165 268.39C158.576 263.938 161.855 259.396 165.366 255.038L176.136 242.175C190.888 225.386 206.619 209.547 223.524 195.121C240.513 180.802 258.415 167.691 277.091 155.862C295.922 144.268 315.49 134.012 335.623 125.088C313.437 133.573 291.452 144.405 270.295 157.457C267.668 159.125 265.038 160.79 262.403 162.464C259.768 164.14 257.106 165.791 254.586 167.653C249.488 171.293 244.326 174.904 239.238 178.649C234.294 182.586 229.331 186.531 224.359 190.489C219.474 194.558 214.778 198.877 209.968 203.091C234.523 179.587 261.783 158.85 291.056 141.422C320.372 124.059 351.804 110.282 384.321 100.105L390.41 98.1648C392.442 97.5316 394.52 97.0439 396.573 96.4781L408.924 93.1961L412.012 92.3798L415.135 91.7034L421.384 90.3696C425.549 89.4939 429.707 88.567 433.884 87.7452L446.494 85.7028C450.697 85.0372 454.89 84.2801 459.131 83.8975C467.597 83.0083 476.034 81.8496 484.54 81.5236C518.485 79.3653 552.646 81.1329 585.988 87.0338C579.807 87.05 573.087 87.0689 566.275 86.9854C562.875 86.8776 559.412 87.1147 555.99 87.2224C552.576 87.3625 549.178 87.5027 545.853 87.6401C544.196 87.7263 542.555 87.8098 540.941 87.8907C539.325 88.0604 537.735 88.2275 536.175 88.3918C533.06 88.7341 530.074 89.0952 527.275 89.4805C524.473 89.8685 521.856 90.2726 519.477 90.7307C517.095 91.2938 514.947 91.8785 513.088 92.4875C513.331 93.0507 516.168 93.444 519.892 93.8078C523.613 94.3251 528.221 94.8101 532.023 95.2413C539.626 96.1035 543.983 96.7529 531.691 97.0547C528.897 97.1597 526.127 97.2649 523.381 97.3672C522.01 97.4185 520.646 97.4669 519.288 97.5154C517.933 97.6232 516.583 97.731 515.238 97.8361C509.876 98.2188 504.611 98.5959 499.449 98.9624C494.308 99.5175 489.269 100.059 484.327 100.593C481.862 100.873 479.415 101.056 477.006 101.396C474.603 101.754 472.223 102.11 469.868 102.463C465.167 103.187 460.548 103.75 456.065 104.529C451.594 105.386 447.224 106.221 442.953 107.04C440.822 107.458 438.707 107.822 436.632 108.272C434.571 108.77 432.534 109.266 430.521 109.754C426.501 110.74 422.58 111.702 418.759 112.64C388.363 120.785 365.519 131.585 351.79 144.405C350.591 145.844 355.592 145.224 363.199 143.75C367.071 143.182 371.614 142.446 376.369 141.649C378.741 141.253 381.176 140.848 383.62 140.441C386.089 140.15 388.562 139.859 390.99 139.574C395.837 139.043 400.434 138.448 404.457 138.224C408.501 138.068 411.896 138.035 414.233 138.205C418.899 138.542 419.341 139.692 412.244 142.236C400.216 145.917 383.731 151.907 365.066 160.039C346.377 168.13 325.796 179.097 305.633 192.243C304.138 193.124 302.594 193.952 301.117 194.892C299.649 195.851 298.175 196.813 296.693 197.78C293.732 199.72 290.746 201.679 287.734 203.657C286.206 204.619 284.738 205.675 283.288 206.775C281.825 207.852 280.356 208.938 278.882 210.027C275.935 212.212 272.963 214.419 269.961 216.642C268.387 217.644 266.429 220.207 263.917 223.332C244.032 240.116 226.41 258.471 212.186 275.614C208.723 279.976 205.188 284.042 202.095 288.159C199.026 292.298 196.091 296.251 193.321 299.988C191.885 301.82 190.632 303.704 189.42 305.525C188.191 307.339 187.003 309.09 185.86 310.78C183.597 314.175 181.334 317.209 179.517 320.121C176.81 324.454 174.118 328.763 171.431 333.058C170.036 335.178 168.823 337.401 167.608 339.621L163.93 346.261C162.399 348.454 160.904 350.456 159.454 352.242C158.032 354.04 156.789 355.694 155.51 357.052C154.575 360.156 153.58 363.231 152.54 366.278C151.489 369.323 150.371 372.333 149.468 375.426C138.429 400.275 130.122 426.007 124.598 452.146C123.669 455.757 122.739 459.362 121.812 462.965L120.414 468.383L119.295 473.851C118.552 477.502 117.808 481.15 117.064 484.793L116.512 487.531L116.111 490.284L115.326 495.792C116.146 495.544 117.393 493.262 117.954 496.145C117.611 500.316 117.134 504.476 116.892 508.647L116.407 521.169C116.337 523.254 116.213 525.34 116.183 527.425L116.261 533.682L116.394 546.187C117.318 562.82 118.517 579.456 121.467 595.841C121.804 599.209 121.958 602.551 122.324 605.784C122.707 609.015 123.041 612.186 123.326 615.298C123.574 618.427 123.817 621.479 124.054 624.446C124.383 627.399 124.652 630.29 124.862 633.117C126.934 637.293 128.788 642.276 131.237 647.686C132.402 650.41 133.574 653.283 134.748 656.287C135.33 657.79 135.926 659.324 136.529 660.886C137.192 662.425 137.866 663.996 138.553 665.588C141.283 671.969 143.864 678.878 147.146 685.84C148.692 689.356 150.271 692.946 151.875 696.589C153.621 700.167 155.391 703.799 157.18 707.472C171.248 736.96 190.781 766.866 209.925 788.713L210.073 788.484C228.819 810.854 250.016 831.524 273.752 849.566C277.309 853.007 280.626 856.426 283.652 859.794C286.92 861.583 290.372 863.249 293.258 864.919C296.17 866.547 298.652 867.98 300.347 868.743C301.557 869.613 302.753 870.475 303.939 871.329C305.167 872.122 306.38 872.908 307.587 873.687C309.988 875.263 312.348 876.813 314.674 878.338C317.002 879.863 319.26 881.431 321.542 882.886C323.864 884.282 326.155 885.661 328.421 887.022C330.684 888.404 332.923 889.771 335.144 891.126C336.254 891.81 337.358 892.492 338.461 893.171C339.592 893.793 340.721 894.416 341.848 895.036C346.361 897.523 350.828 899.983 355.298 902.445C358.893 903.472 366.303 903.763 373.57 906.657C377.159 908.255 380.845 909.484 384.488 910.75C388.136 912.006 391.752 913.253 395.344 914.493C402.598 916.747 409.854 918.611 416.978 920.599C421.187 921.64 425.407 922.683 429.64 923.73L435.999 925.321C438.135 925.787 440.291 926.171 442.441 926.604C446.747 927.458 451.064 928.313 455.394 929.171C459.748 929.886 464.137 930.465 468.529 931.136C498.118 935.335 528.013 936.599 557.585 934.322C587.155 932.138 616.409 926.868 644.787 918.666C646.865 918.949 647.657 919.879 648.476 920.799C652.693 918.829 657.785 916.63 662.886 914.794C665.424 913.849 667.938 912.914 670.299 912.035C672.624 911.065 674.75 910.025 676.577 909.036C675.273 910.009 674.529 910.82 674.987 911.275C681.061 908.125 686.005 905.908 690.273 903.968C694.49 901.92 698.13 900.368 701.738 898.932C703.554 898.231 705.349 897.536 707.197 896.819C709.013 896.027 710.883 895.211 712.883 894.338C716.857 892.538 721.395 890.565 726.84 887.712C731.55 884.775 735.387 881.113 739.857 878.009C742.236 876.759 744.467 875.245 746.793 873.825C753.192 870.928 759.589 867.907 765.431 864.003C771.361 860.215 777.281 856.289 782.781 851.668C785.559 849.394 788.355 847.103 791.177 844.794C793.976 842.455 796.587 839.855 799.333 837.352C802.052 834.819 804.8 832.259 807.578 829.67C810.246 826.965 812.945 824.227 815.68 821.454C838.363 800.152 858.957 776.343 876.42 750.214C879.764 744.966 882.76 740.619 885.541 736.82C886.969 734.945 888.222 733.134 889.407 731.404C890.612 729.685 891.784 728.066 892.94 726.497C895.292 723.369 897.499 720.435 899.778 717.404C901.977 714.313 904.073 711.015 906.393 707.27Z" fill="#C1512D"/>
<path d="M169.988 737.791C183.563 762.583 199.676 785.998 218.08 807.567C215.501 804.762 212.955 801.992 210.438 799.255C207.924 796.515 205.647 793.626 203.271 790.872C200.932 788.086 198.588 785.351 196.33 782.584C194.206 779.712 192.102 776.866 190.011 774.04C187.977 771.173 185.845 768.403 184.024 765.439C182.2 762.478 180.432 759.503 178.729 756.504C175.199 750.59 172.459 744.239 169.988 737.791Z" fill="#C1512D"/>
<path d="M432.98 140.434C435.758 140.372 438.606 140.253 441.514 140.078C444.418 139.873 447.441 139.933 450.494 139.771C456.616 139.537 462.956 138.976 469.593 138.86C400.474 147.068 333.569 173.776 277.367 216.941L277.146 216.785C299.371 199.098 329.428 181.247 358.892 168.828C362.565 167.25 366.197 165.689 369.778 164.151C373.364 162.631 376.994 161.378 380.483 159.98C384.005 158.659 387.378 157.148 390.782 155.997C394.174 154.82 397.472 153.642 400.654 152.468C406.978 149.964 413.054 148.162 418.467 146.079C421.192 145.101 423.73 143.958 426.176 143.115C428.615 142.228 430.889 141.334 432.98 140.434Z" fill="#C1512D"/>
<path d="M138.703 667.583C139.35 668.529 140.064 669.749 140.799 671.029C140.821 671.11 140.843 671.175 140.88 671.274C140.139 670.283 139.414 669.024 138.703 667.583Z" fill="#C1512D"/>
<path d="M572.566 91.593C575.085 91.9406 577.545 92.2801 580.048 92.625L565.762 91.1646C563.388 90.8736 560.998 90.7308 558.605 90.6203L551.435 90.2242C541.889 89.4886 532.307 89.5829 522.736 89.459C538.02 88.8985 555.14 89.3754 572.566 91.593Z" fill="#C1512D"/>
<path d="M762.324 165.649C764.356 166.983 766.441 168.236 768.43 169.632L774.361 173.876C778.3 176.726 782.307 179.494 786.197 182.414L797.636 191.492C799.522 193.028 801.497 194.464 803.313 196.086L808.802 200.904C823.675 213.509 837.234 227.588 850.256 242.087C882.464 280.588 906.377 324.503 921.003 368.68C913.143 348.571 903.942 328.965 893.43 310.007C882.744 291.146 870.63 273.071 857.37 255.794C830.587 221.455 798.614 190.794 762.324 165.649Z" fill="#C1512D"/>
<path d="M567.641 137.276C571.187 137.993 574.754 138.602 578.292 139.44C581.808 140.348 585.335 141.261 588.871 142.177C595.96 143.829 602.893 146.257 609.863 148.38C602.777 146.672 595.755 144.715 588.596 143.516C585.031 142.827 581.474 142.134 577.918 141.444C574.347 140.83 570.75 140.418 567.172 139.887C569.988 139.458 567.832 138.111 567.641 137.276Z" fill="#C1512D"/>
<path d="M413.626 103.15C417.407 102.207 421.238 101.431 425.008 100.563C415.364 103.153 405.963 106.658 396.57 109.924C399.909 108.477 407.992 105.489 413.626 103.15Z" fill="#C1512D"/>
<path d="M711.606 191.476C707.154 188.541 702.442 186.073 697.802 183.5L690.842 179.647C688.549 178.313 686.097 177.292 683.736 176.098C689.74 178.167 695.455 180.681 701.482 182.772C702.738 184.082 704.252 185.448 705.979 186.854C707.723 188.237 709.542 189.902 711.606 191.476Z" fill="#C1512D"/>
<path d="M833.512 300.878C835.657 303.82 837.573 306.897 839.588 309.861C841.55 312.863 843.609 315.768 845.444 318.777C847.23 321.817 849.003 324.829 850.757 327.812C852.487 330.808 854.314 333.708 855.785 336.769C847.136 322.385 837.751 307.929 827.221 294.64C830.182 297.251 832.604 299.277 833.512 300.878Z" fill="#C1512D"/>
<path d="M752.086 874.523C752.086 875.391 751.948 876.274 751.663 877.145C750.218 881.558 745.465 883.964 741.049 882.517C737.506 881.356 735.256 878.063 735.256 874.526C735.256 873.658 735.391 872.774 735.676 871.907C737.123 867.49 741.874 865.084 746.29 866.531C749.836 867.692 752.086 870.985 752.086 874.523Z" fill="#D2775A"/>
<path d="M856.14 826.221C856.14 827.092 856.006 827.973 855.72 828.843C854.273 833.259 849.52 835.666 845.106 834.219C841.56 833.057 839.311 829.765 839.311 826.227C839.311 825.356 839.445 824.475 839.731 823.605C841.178 819.189 845.931 816.783 850.345 818.23C853.89 819.391 856.14 822.684 856.14 826.221Z" fill="#D2775A"/>
<path d="M781.408 941.325C781.382 941.752 781.301 942.181 781.161 942.606C780.277 945.302 777.375 946.771 774.68 945.887C774.26 945.75 773.869 945.563 773.514 945.336C776.16 944.02 778.789 942.684 781.408 941.325Z" fill="#D2775A"/>
<path d="M829.324 874.03C829.324 874.561 829.241 875.1 829.068 875.631C828.184 878.325 825.282 879.797 822.588 878.913C822.534 878.894 822.483 878.878 822.432 878.859C824.695 876.946 826.964 875.008 829.23 873.05C829.292 873.37 829.324 873.699 829.324 874.03Z" fill="#D2775A"/>
<path d="M862.395 874.62C860.922 875.758 859.44 876.895 857.888 877.94C857.537 878.183 857.187 878.425 856.837 878.668C856.513 878.234 856.295 877.727 856.201 877.191C856.659 876.892 857.117 876.593 857.578 876.294C857.087 876.612 856.632 876.911 856.201 877.191C856.168 877 856.152 876.806 856.152 876.612C856.152 876.256 856.206 875.895 856.322 875.539C856.915 873.734 858.858 872.75 860.66 873.343C861.39 873.58 861.983 874.041 862.395 874.62Z" fill="#D2775A"/>
<path d="M830.188 236.003C830.188 236.706 830.1 237.42 829.914 238.134C828.742 242.629 824.147 245.323 819.65 244.148C815.867 243.162 813.361 239.751 813.361 236.014C813.361 235.313 813.45 234.596 813.636 233.885C814.808 229.391 819.402 226.696 823.9 227.868C827.683 228.857 830.188 232.268 830.188 236.003Z" fill="#D2775A"/>
<path d="M858.12 251.986C858.12 252.69 858.031 253.404 857.848 254.115C856.673 258.609 852.079 261.304 847.582 260.132C843.799 259.143 841.293 255.732 841.293 251.997C841.293 251.294 841.382 250.58 841.568 249.868C842.74 245.371 847.334 242.68 851.831 243.852C855.614 244.838 858.12 248.249 858.12 251.986Z" fill="#D2775A"/>
<path d="M825.438 204.768C825.438 205.119 825.394 205.477 825.303 205.833C824.715 208.08 822.417 209.427 820.17 208.84C818.278 208.346 817.025 206.641 817.025 204.774C817.025 204.421 817.069 204.065 817.163 203.707C817.748 201.459 820.046 200.112 822.293 200.7C824.185 201.193 825.438 202.898 825.438 204.768Z" fill="#D2775A"/>
<path d="M818.217 187.634C818.217 188.063 818.164 188.499 818.05 188.933C817.334 191.679 814.529 193.322 811.783 192.608C809.474 192.005 807.943 189.922 807.943 187.64C807.943 187.211 807.997 186.775 808.11 186.341C808.827 183.595 811.632 181.952 814.378 182.668C816.687 183.269 818.217 185.352 818.217 187.634Z" fill="#D2775A"/>
<path d="M846.457 187.06C846.457 187.488 846.403 187.925 846.289 188.359C845.573 191.104 842.768 192.751 840.022 192.034C837.713 191.431 836.18 189.348 836.18 187.068C836.18 186.637 836.236 186.2 836.349 185.767C837.066 183.021 839.871 181.377 842.617 182.094C844.926 182.695 846.457 184.778 846.457 187.06Z" fill="#D2775A"/>
<path d="M800.658 203.642C800.658 203.93 800.623 204.221 800.547 204.512C800.067 206.35 798.189 207.452 796.352 206.972C794.805 206.568 793.781 205.175 793.781 203.647C793.781 203.362 793.819 203.068 793.894 202.777C794.374 200.939 796.252 199.84 798.087 200.32C799.634 200.724 800.658 202.117 800.658 203.642Z" fill="#D2775A"/>
<path d="M806.811 239.899C806.811 240.187 806.773 240.478 806.698 240.769C806.218 242.607 804.34 243.706 802.502 243.229C800.956 242.825 799.932 241.429 799.932 239.904C799.932 239.616 799.969 239.325 800.045 239.034C800.524 237.196 802.403 236.094 804.24 236.574C805.784 236.978 806.811 238.374 806.811 239.899Z" fill="#D2775A"/>
<path d="M809.344 213.242C809.344 213.458 809.314 213.676 809.257 213.892C808.902 215.266 807.498 216.088 806.126 215.729C804.97 215.427 804.205 214.387 804.205 213.245C804.205 213.032 804.232 212.814 804.289 212.596C804.647 211.224 806.048 210.402 807.422 210.758C808.576 211.06 809.344 212.102 809.344 213.242Z" fill="#D2775A"/>
<path d="M801.296 174.159C801.296 174.318 801.277 174.48 801.234 174.641C800.97 175.657 799.933 176.266 798.917 175.999C798.06 175.776 797.494 175.005 797.494 174.162C797.494 174.003 797.516 173.841 797.556 173.679C797.823 172.664 798.86 172.055 799.876 172.321C800.73 172.545 801.296 173.316 801.296 174.159Z" fill="#D2775A"/>
<path d="M783.388 181.358C783.388 181.517 783.369 181.676 783.326 181.838C783.062 182.854 782.024 183.463 781.009 183.199C780.152 182.975 779.586 182.204 779.586 181.358C779.586 181.199 779.607 181.041 779.648 180.879C779.912 179.863 780.952 179.254 781.968 179.518C782.822 179.742 783.388 180.512 783.388 181.358Z" fill="#D2775A"/>
<path d="M781.111 212.194C781.111 212.353 781.089 212.515 781.049 212.677C780.782 213.692 779.744 214.301 778.729 214.035C777.874 213.814 777.309 213.043 777.309 212.197C777.309 212.038 777.327 211.879 777.371 211.717C777.635 210.702 778.672 210.093 779.688 210.357C780.545 210.58 781.111 211.351 781.111 212.194Z" fill="#D2775A"/>
<path d="M932.781 680.247C932.781 681.174 932.627 682.117 932.301 683.042C930.76 687.423 925.956 689.727 921.572 688.183C918.115 686.967 915.951 683.718 915.951 680.247C915.951 679.32 916.105 678.38 916.431 677.456C917.972 673.075 922.776 670.771 927.158 672.312C930.617 673.53 932.781 676.78 932.781 680.247Z" fill="#D2775A"/>
<path d="M906.273 662.003C906.273 662.93 906.12 663.871 905.794 664.795C904.252 669.179 899.448 671.48 895.067 669.939C891.607 668.721 889.443 665.474 889.443 662.003C889.443 661.076 889.597 660.133 889.923 659.212C891.464 654.828 896.268 652.524 900.65 654.068C904.109 655.286 906.273 658.533 906.273 662.003Z" fill="#D2775A"/>
<path d="M926.522 711.426C926.522 711.889 926.444 712.361 926.283 712.821C925.509 715.012 923.108 716.165 920.918 715.392C919.188 714.786 918.107 713.161 918.107 711.426C918.107 710.962 918.183 710.491 918.345 710.03C919.118 707.839 921.519 706.686 923.709 707.457C925.439 708.066 926.522 709.69 926.522 711.426Z" fill="#D2775A"/>
<path d="M934.153 729.177C934.153 729.743 934.059 730.317 933.862 730.88C932.919 733.558 929.987 734.962 927.312 734.022C925.199 733.278 923.879 731.295 923.879 729.177C923.879 728.611 923.973 728.035 924.17 727.472C925.113 724.796 928.045 723.389 930.72 724.33C932.833 725.073 934.153 727.057 934.153 729.177Z" fill="#D2775A"/>
<path d="M905.966 727.404C905.966 727.97 905.872 728.543 905.673 729.109C904.732 731.785 901.798 733.189 899.122 732.248C897.01 731.505 895.689 729.522 895.689 727.404C895.689 726.838 895.784 726.261 895.983 725.698C896.924 723.022 899.858 721.616 902.533 722.559C904.646 723.3 905.966 725.286 905.966 727.404Z" fill="#D2775A"/>
<path d="M949.59 714.541C949.59 714.918 949.525 715.303 949.393 715.68C948.763 717.472 946.801 718.413 945.009 717.782C943.595 717.286 942.711 715.958 942.711 714.541C942.711 714.161 942.776 713.775 942.908 713.398C943.538 711.606 945.5 710.666 947.292 711.296C948.704 711.795 949.59 713.121 949.59 714.541Z" fill="#D2775A"/>
<path d="M946.471 677.898C946.471 678.275 946.406 678.661 946.274 679.038C945.644 680.83 943.679 681.77 941.89 681.14C940.476 680.644 939.592 679.315 939.592 677.898C939.592 677.518 939.654 677.135 939.788 676.756C940.419 674.966 942.381 674.026 944.172 674.654C945.584 675.152 946.471 676.481 946.471 677.898Z" fill="#D2775A"/>
<path d="M939.996 704.18C939.996 704.463 939.947 704.751 939.85 705.034C939.379 706.37 937.913 707.074 936.574 706.602C935.518 706.23 934.857 705.239 934.857 704.18C934.857 703.897 934.906 703.608 935.003 703.328C935.474 701.989 936.94 701.286 938.279 701.757C939.336 702.129 939.996 703.121 939.996 704.18Z" fill="#D2775A"/>
<path d="M943.435 743.743C943.435 743.951 943.4 744.164 943.328 744.374C942.977 745.363 941.892 745.883 940.903 745.535C940.121 745.26 939.631 744.528 939.631 743.743C939.631 743.533 939.666 743.32 939.741 743.11C940.089 742.121 941.175 741.601 942.164 741.949C942.945 742.224 943.435 742.959 943.435 743.743Z" fill="#D2775A"/>
<path d="M961.881 738.055C961.881 738.265 961.846 738.478 961.773 738.685C961.649 739.033 961.436 739.324 961.167 739.539C960.83 739.413 960.35 739.494 959.717 739.79C959.647 739.822 959.577 739.857 959.504 739.895C959.453 739.882 959.399 739.865 959.348 739.849C958.567 739.574 958.076 738.839 958.076 738.055C958.076 737.845 958.111 737.632 958.187 737.424C958.534 736.433 959.62 735.913 960.609 736.263C961.39 736.538 961.881 737.271 961.881 738.055Z" fill="#D2775A"/>
<path d="M966.708 707.513C966.708 707.723 966.676 707.936 966.6 708.144C966.253 709.135 965.167 709.655 964.178 709.308C963.397 709.03 962.906 708.297 962.906 707.513C962.906 707.303 962.941 707.09 963.014 706.883C963.364 705.891 964.448 705.371 965.439 705.721C966.221 705.996 966.708 706.729 966.708 707.513Z" fill="#D2775A"/>
<path d="M957.078 470.193C957.078 473.364 955.273 476.401 952.206 477.826C947.992 479.785 942.991 477.955 941.032 473.741C940.501 472.596 940.248 471.389 940.248 470.203C940.248 467.029 942.051 463.993 945.117 462.567C949.331 460.611 954.335 462.441 956.291 466.652C956.825 467.8 957.078 469.004 957.078 470.193Z" fill="#D2775A"/>
<path d="M988.793 464.734C988.793 467.908 986.987 470.944 983.921 472.37C979.71 474.326 974.706 472.496 972.747 468.285C972.216 467.137 971.963 465.933 971.963 464.744C971.963 461.573 973.765 458.533 976.832 457.111C981.046 455.152 986.05 456.981 988.006 461.196C988.539 462.341 988.793 463.548 988.793 464.734Z" fill="#D2775A"/>
<path d="M932.563 446.448C932.563 448.035 931.661 449.555 930.128 450.266C928.02 451.245 925.52 450.331 924.539 448.224C924.275 447.65 924.148 447.049 924.148 446.454C924.148 444.869 925.048 443.35 926.582 442.638C928.689 441.658 931.192 442.574 932.17 444.681C932.437 445.255 932.563 445.856 932.563 446.448Z" fill="#D2775A"/>
<path d="M916.298 438.427C916.298 440.364 915.198 442.218 913.325 443.088C910.752 444.284 907.699 443.166 906.503 440.596C906.177 439.895 906.023 439.157 906.023 438.435C906.023 436.497 907.125 434.641 908.998 433.771C911.569 432.577 914.624 433.692 915.821 436.266C916.144 436.966 916.298 437.702 916.298 438.427Z" fill="#D2775A"/>
<path d="M937.71 420.007C937.71 421.944 936.608 423.798 934.736 424.668C932.162 425.862 929.11 424.747 927.913 422.173C927.587 421.473 927.434 420.737 927.434 420.012C927.434 418.075 928.536 416.221 930.408 415.351C932.979 414.157 936.034 415.273 937.231 417.846C937.554 418.547 937.71 419.282 937.71 420.007Z" fill="#D2775A"/>
<path d="M912.56 460.872C912.56 462.168 911.824 463.408 910.571 463.99C908.85 464.79 906.804 464.044 906.004 462.322C905.786 461.853 905.684 461.36 905.684 460.875C905.684 459.579 906.422 458.337 907.675 457.755C909.397 456.955 911.442 457.704 912.239 459.425C912.458 459.894 912.56 460.387 912.56 460.872Z" fill="#D2775A"/>
<path d="M940.389 484.913C940.389 486.211 939.65 487.451 938.398 488.033C936.676 488.833 934.631 488.087 933.83 486.365C933.615 485.896 933.51 485.403 933.51 484.918C933.51 483.622 934.248 482.38 935.501 481.798C937.223 480.998 939.268 481.744 940.065 483.466C940.284 483.935 940.389 484.428 940.389 484.913Z" fill="#D2775A"/>
<path d="M925.17 462.189C925.17 463.16 924.62 464.086 923.682 464.52C922.397 465.118 920.869 464.561 920.271 463.273C920.109 462.925 920.031 462.556 920.031 462.195C920.031 461.225 920.584 460.298 921.519 459.861C922.807 459.266 924.332 459.824 924.93 461.109C925.091 461.459 925.17 461.828 925.17 462.189Z" fill="#D2775A"/>
<path d="M893.931 436.748C893.931 437.465 893.524 438.152 892.831 438.473C891.878 438.915 890.749 438.502 890.304 437.551C890.185 437.292 890.129 437.02 890.129 436.751C890.129 436.034 890.536 435.347 891.228 435.026C892.179 434.585 893.311 434.997 893.753 435.948C893.874 436.209 893.931 436.481 893.931 436.748Z" fill="#D2775A"/>
<path d="M884.705 453.7C884.705 454.419 884.295 455.103 883.603 455.427C882.652 455.869 881.52 455.456 881.078 454.503C880.957 454.244 880.9 453.972 880.9 453.702C880.9 452.986 881.307 452.301 882.002 451.978C882.954 451.536 884.085 451.948 884.527 452.902C884.646 453.161 884.705 453.433 884.705 453.7Z" fill="#D2775A"/>
<path d="M902.579 478.931C902.579 479.65 902.172 480.334 901.48 480.658C900.526 481.1 899.397 480.685 898.955 479.734C898.834 479.475 898.777 479.203 898.777 478.933C898.777 478.217 899.184 477.532 899.877 477.209C900.828 476.767 901.96 477.179 902.401 478.133C902.523 478.392 902.579 478.664 902.579 478.931Z" fill="#D2775A"/>
<path d="M615.375 93.2595C609.867 92.5131 604.338 91.8799 598.801 91.3518C599.811 87.2912 603.716 84.5266 607.978 85.0439C612.203 85.5586 615.313 89.1207 615.375 93.2595ZM615.019 95.8219C614.558 97.3578 613.68 98.6889 612.527 99.7047C608.458 99.2763 604.416 98.9395 600.42 98.6835C599.811 97.9291 599.332 97.0722 599.011 96.148C599.981 96.1075 600.951 96.0698 601.921 96.0294C605.343 95.9216 608.805 95.6845 612.206 95.7923C613.144 95.8058 614.084 95.8138 615.019 95.8219Z" fill="#D2775A"/>
<path d="M612.153 100.017C610.459 101.346 608.257 102.027 605.951 101.747C603.949 101.502 602.194 100.575 600.898 99.225L604.539 99.4271C606.931 99.5375 609.321 99.6804 611.695 99.9714L612.153 100.017Z" fill="#D2775A"/>
<path d="M598.311 144.861C598.311 145.069 598.3 145.276 598.274 145.487C597.931 148.302 595.372 150.31 592.556 149.968C589.95 149.65 588.037 147.435 588.037 144.875C588.037 144.667 588.051 144.46 588.078 144.247C588.417 141.431 590.98 139.427 593.795 139.769C596.401 140.084 598.311 142.302 598.311 144.861Z" fill="#D2775A"/>
<path d="M631.845 140.505C631.845 140.645 631.834 140.782 631.818 140.925C631.589 142.809 629.875 144.151 627.992 143.921C626.249 143.711 624.969 142.227 624.969 140.513C624.969 140.376 624.977 140.235 624.993 140.095C625.222 138.209 626.936 136.867 628.819 137.096C630.565 137.309 631.845 138.791 631.845 140.505Z" fill="#D2775A"/>
<path d="M619.083 120.193C619.083 120.333 619.075 120.471 619.059 120.614C618.83 122.497 617.116 123.839 615.233 123.61C613.487 123.4 612.207 121.915 612.207 120.201C612.207 120.064 612.215 119.924 612.234 119.784C612.463 117.898 614.177 116.556 616.06 116.785C617.804 116.998 619.083 118.48 619.083 120.193Z" fill="#D2775A"/>
<path d="M651.999 124.297C651.999 124.402 651.994 124.504 651.98 124.609C651.81 126.018 650.53 127.021 649.121 126.851C647.82 126.692 646.863 125.585 646.863 124.305C646.863 124.2 646.869 124.097 646.882 123.992C647.052 122.583 648.332 121.581 649.741 121.75C651.045 121.909 651.999 123.017 651.999 124.297Z" fill="#D2775A"/>
<path d="M648.539 168.613C648.539 168.689 648.534 168.767 648.523 168.842C648.396 169.885 647.45 170.629 646.408 170.502C645.443 170.384 644.734 169.565 644.734 168.616C644.734 168.541 644.74 168.462 644.751 168.384C644.877 167.344 645.823 166.601 646.866 166.727C647.83 166.846 648.539 167.665 648.539 168.613Z" fill="#D2775A"/>
<path d="M630.851 164.547C630.851 164.625 630.845 164.704 630.835 164.782C630.708 165.822 629.762 166.565 628.719 166.439C627.755 166.32 627.049 165.501 627.049 164.553C627.049 164.477 627.052 164.399 627.062 164.321C627.189 163.281 628.135 162.537 629.177 162.664C630.142 162.782 630.851 163.601 630.851 164.547Z" fill="#D2775A"/>
<path d="M701.284 128.858C701.284 133.439 698.062 137.535 693.397 138.467C688.084 139.531 682.916 136.085 681.851 130.774C681.722 130.125 681.66 129.475 681.66 128.837C681.66 124.256 684.883 120.16 689.547 119.228C694.861 118.164 700.029 121.61 701.093 126.924C701.222 127.573 701.284 128.22 701.284 128.858Z" fill="#D2775A"/>
<path d="M721.463 165.615C721.463 168.412 719.496 170.912 716.648 171.484C713.404 172.133 710.246 170.029 709.599 166.784C709.518 166.388 709.48 165.992 709.48 165.601C709.48 162.805 711.447 160.304 714.296 159.736C717.54 159.086 720.698 161.188 721.347 164.432C721.425 164.831 721.463 165.224 721.463 165.615Z" fill="#D2775A"/>
<path d="M796.74 115.098C796.74 117.895 794.773 120.398 791.925 120.967C788.681 121.616 785.526 119.512 784.876 116.268C784.796 115.872 784.758 115.476 784.758 115.088C784.758 113.355 785.512 111.736 786.765 110.617C787.436 110.852 788.069 111.059 788.665 111.243C792.946 112.609 795.291 112.905 796.096 112.39C796.336 112.862 796.514 113.374 796.624 113.918C796.703 114.314 796.74 114.71 796.74 115.098Z" fill="#D2775A"/>
<path d="M734.684 121.409C734.684 124.206 732.715 126.706 729.867 127.275C726.622 127.924 723.467 125.82 722.818 122.575C722.74 122.179 722.699 121.783 722.699 121.395C722.699 118.598 724.669 116.098 727.517 115.527C727.53 115.524 727.544 115.521 727.56 115.519C729.6 116.348 731.631 117.192 733.66 118.051C734.092 118.69 734.404 119.423 734.566 120.226C734.644 120.622 734.684 121.018 734.684 121.409Z" fill="#D2775A"/>
<path d="M786.641 172.2C786.641 174.996 784.672 177.497 781.824 178.066C778.579 178.715 775.424 176.613 774.775 173.369C774.697 172.97 774.656 172.577 774.656 172.186C774.656 169.389 776.626 166.889 779.474 166.318C782.718 165.671 785.873 167.773 786.523 171.017C786.601 171.413 786.641 171.809 786.641 172.2Z" fill="#D2775A"/>
<path d="M738.773 151.746C738.773 153.618 737.455 155.292 735.55 155.674C733.378 156.108 731.266 154.699 730.832 152.53C730.778 152.263 730.754 151.999 730.754 151.737C730.754 149.865 732.072 148.191 733.977 147.812C736.148 147.375 738.261 148.784 738.695 150.956C738.749 151.22 738.773 151.487 738.773 151.746Z" fill="#D2775A"/>
<path d="M778.594 131.693C778.594 133.092 777.608 134.342 776.185 134.628C774.563 134.951 772.984 133.9 772.661 132.278C772.62 132.079 772.602 131.882 772.602 131.685C772.602 130.287 773.585 129.037 775.01 128.754C776.633 128.428 778.209 129.479 778.535 131.101C778.573 131.3 778.594 131.497 778.594 131.693Z" fill="#D2775A"/>
<path d="M815.713 146.152C815.713 147.551 814.727 148.801 813.304 149.087C811.682 149.41 810.103 148.359 809.78 146.737C809.74 146.54 809.721 146.341 809.721 146.147C809.721 144.749 810.704 143.498 812.13 143.213C813.752 142.889 815.328 143.94 815.654 145.562C815.692 145.762 815.713 145.958 815.713 146.152Z" fill="#D2775A"/>
<path d="M753.83 138.753C753.83 139.788 753.099 140.712 752.046 140.925C750.847 141.165 749.677 140.386 749.438 139.184C749.408 139.039 749.395 138.893 749.395 138.748C749.395 137.713 750.122 136.786 751.176 136.576C752.377 136.336 753.544 137.115 753.787 138.317C753.816 138.462 753.83 138.608 753.83 138.753Z" fill="#D2775A"/>
<path d="M561.318 100.985C561.318 101.154 561.307 101.324 561.286 101.497C561.264 101.682 561.229 101.866 561.183 102.041C559.938 101.825 559.143 101.583 559.02 101.294C559.739 101.06 560.499 100.828 561.299 100.599C561.31 100.726 561.318 100.855 561.318 100.985Z" fill="#D2775A"/>
<path d="M907.83 397.412C907.83 398.28 907.695 399.164 907.409 400.034C905.963 404.451 901.209 406.857 896.796 405.41C893.25 404.248 891 400.953 891 397.415C891 396.548 891.135 395.666 891.42 394.796C892.867 390.38 897.62 387.974 902.034 389.421C905.58 390.582 907.83 393.875 907.83 397.412Z" fill="#C1512D"/>
<path d="M973.83 649.413C973.83 650.283 973.695 651.164 973.409 652.034C971.963 656.448 967.209 658.857 962.796 657.41C959.25 656.248 957 652.953 957 649.415C957 648.548 957.135 647.667 957.42 646.796C958.867 642.38 963.618 639.974 968.034 641.421C971.58 642.582 973.83 645.875 973.83 649.413Z" fill="#C1512D"/>
<path d="M755.622 815.168C755.622 815.602 755.555 816.044 755.412 816.478C754.687 818.684 752.313 819.889 750.104 819.164C748.333 818.585 747.207 816.938 747.207 815.168C747.207 814.734 747.274 814.292 747.417 813.859C748.142 811.652 750.516 810.447 752.725 811.17C754.498 811.752 755.622 813.398 755.622 815.168Z" fill="#C1512D"/>
<path d="M826.009 786.216C826.009 786.744 825.926 787.283 825.753 787.814C824.869 790.511 821.968 791.979 819.27 791.095C817.107 790.387 815.732 788.377 815.732 786.216C815.732 785.688 815.816 785.149 815.991 784.615C816.872 781.921 819.774 780.452 822.471 781.333C824.635 782.045 826.009 784.055 826.009 786.216Z" fill="#C1512D"/>
<path d="M903.511 780.242C903.511 780.773 903.428 781.312 903.253 781.843C902.371 784.54 899.469 786.009 896.772 785.125C894.609 784.416 893.234 782.406 893.234 780.245C893.234 779.714 893.318 779.175 893.49 778.644C894.374 775.95 897.276 774.479 899.971 775.363C902.137 776.071 903.511 778.084 903.511 780.242Z" fill="#C1512D"/>
<path d="M932.546 541.249C932.546 541.777 932.463 542.316 932.29 542.849C931.407 545.544 928.505 547.012 925.81 546.129C923.644 545.42 922.27 543.41 922.27 541.249C922.27 540.721 922.353 540.182 922.528 539.648C923.412 536.954 926.311 535.485 929.008 536.369C931.172 537.078 932.546 539.088 932.546 541.249Z" fill="#C1512D"/>
<path d="M901.326 539.868C901.326 540.399 901.242 540.938 901.067 541.469C900.183 544.166 897.284 545.635 894.587 544.751C892.423 544.042 891.049 542.032 891.049 539.871C891.049 539.34 891.132 538.801 891.305 538.27C892.189 535.573 895.091 534.105 897.785 534.989C899.951 535.697 901.326 537.707 901.326 539.868Z" fill="#C1512D"/>
<path d="M883.98 515.055C883.98 515.586 883.896 516.125 883.724 516.656C882.84 519.35 879.938 520.821 877.241 519.937C875.077 519.229 873.703 517.216 873.703 515.058C873.703 514.527 873.787 513.988 873.962 513.457C874.843 510.76 877.745 509.292 880.442 510.175C882.606 510.884 883.98 512.894 883.98 515.055Z" fill="#C1512D"/>
<path d="M787.766 819.988C787.766 820.519 787.685 821.058 787.51 821.589C786.627 824.286 783.725 825.755 781.03 824.871C778.866 824.162 777.492 822.152 777.492 819.991C777.492 819.46 777.573 818.921 777.748 818.391C778.632 815.696 781.531 814.225 784.228 815.109C786.392 815.817 787.766 817.83 787.766 819.988Z" fill="#C1512D"/>
<path d="M854.518 758.786C854.518 759.314 854.435 759.853 854.262 760.387C853.378 763.081 850.476 764.55 847.782 763.666C845.616 762.957 844.244 760.947 844.244 758.786C844.244 758.258 844.325 757.719 844.5 757.185C845.384 754.491 848.283 753.022 850.98 753.904C853.144 754.615 854.518 756.625 854.518 758.786Z" fill="#C1512D"/>
<path d="M964.488 536.029C964.488 536.56 964.404 537.099 964.229 537.63C963.345 540.327 960.446 541.796 957.749 540.912C955.585 540.203 954.211 538.193 954.211 536.032C954.211 535.501 954.294 534.962 954.467 534.432C955.351 531.734 958.253 530.266 960.947 531.15C963.114 531.858 964.488 533.868 964.488 536.029Z" fill="#C1512D"/>
<path d="M900.74 494.437C900.74 494.965 900.656 495.504 900.484 496.037C899.6 498.732 896.698 500.2 894.003 499.319C891.837 498.608 890.463 496.598 890.463 494.437C890.463 493.909 890.546 493.37 890.722 492.839C891.605 490.142 894.505 488.673 897.202 489.557C899.366 490.266 900.74 492.276 900.74 494.437Z" fill="#C1512D"/>
<path d="M871.89 818.615C871.89 819.145 871.807 819.684 871.634 820.215C870.75 822.91 867.848 824.378 865.154 823.497C862.987 822.786 861.613 820.776 861.613 818.617C861.613 818.087 861.697 817.548 861.872 817.017C862.756 814.32 865.655 812.851 868.352 813.735C870.516 814.444 871.89 816.454 871.89 818.615Z" fill="#C1512D"/>
<path d="M636.687 920.035C636.687 920.336 636.66 920.639 636.606 920.943C633.594 921.748 630.579 922.521 627.55 923.261C626.822 922.357 626.41 921.219 626.41 920.037C626.41 919.507 626.494 918.968 626.666 918.436C627.55 915.74 630.452 914.272 633.149 915.155C635.313 915.864 636.687 917.875 636.687 920.035Z" fill="#C1512D"/>
<path d="M808.536 845.398C808.536 845.753 808.479 846.112 808.363 846.467C807.773 848.273 805.83 849.256 804.025 848.663C803.26 848.413 802.643 847.92 802.23 847.297C803.882 845.764 805.531 844.215 807.175 842.66C808.029 843.307 808.536 844.325 808.536 845.398Z" fill="#C1512D"/>
<path d="M844.558 783.998C844.558 784.354 844.504 784.712 844.388 785.068C843.795 786.873 841.855 787.857 840.05 787.264C838.6 786.79 837.682 785.445 837.682 783.998C837.682 783.645 837.738 783.284 837.854 782.928C838.444 781.123 840.387 780.14 842.19 780.732C843.639 781.207 844.558 782.551 844.558 783.998Z" fill="#C1512D"/>
<path d="M960.066 493.99C960.066 494.346 960.012 494.707 959.893 495.062C959.303 496.865 957.361 497.848 955.558 497.258C954.108 496.781 953.189 495.437 953.189 493.99C953.189 493.637 953.243 493.276 953.362 492.92C953.952 491.115 955.895 490.131 957.697 490.724C959.147 491.198 960.066 492.543 960.066 493.99Z" fill="#C1512D"/>
<path d="M970.462 554.231C970.462 554.584 970.408 554.945 970.293 555.3C969.7 557.106 967.757 558.089 965.954 557.496C964.505 557.022 963.586 555.675 963.586 554.231C963.586 553.875 963.64 553.514 963.758 553.161C964.349 551.356 966.291 550.372 968.094 550.962C969.543 551.436 970.462 552.784 970.462 554.231Z" fill="#C1512D"/>
<path d="M731.504 773.17C731.504 773.525 731.447 773.886 731.332 774.242C730.739 776.045 728.799 777.028 726.993 776.438C725.544 775.964 724.625 774.617 724.625 773.172C724.625 772.817 724.682 772.456 724.797 772.1C725.388 770.297 727.33 769.314 729.136 769.904C730.583 770.378 731.504 771.725 731.504 773.17Z" fill="#C1512D"/>
<path d="M839.761 854.901C838.398 855.949 837.059 856.96 835.736 857.919C835.525 857.736 835.35 857.517 835.213 857.278C836.172 856.027 837.118 854.766 838.058 853.503C838.118 853.519 838.177 853.535 838.236 853.554C838.937 853.783 839.47 854.284 839.761 854.901Z" fill="#C1512D"/>
<path d="M973.125 510.075C973.125 510.339 973.082 510.609 972.995 510.873C972.553 512.223 971.104 512.956 969.754 512.514C968.673 512.161 967.986 511.156 967.986 510.075C967.986 509.809 968.027 509.539 968.116 509.275C968.558 507.928 970.007 507.192 971.354 507.634C972.438 507.99 973.125 508.995 973.125 510.075Z" fill="#C1512D"/>
<path d="M919.492 421.125C919.492 421.392 919.449 421.662 919.363 421.926C918.921 423.276 917.471 424.009 916.121 423.567C915.041 423.214 914.354 422.209 914.354 421.128C914.354 420.861 914.394 420.592 914.483 420.328C914.925 418.981 916.374 418.245 917.722 418.687C918.805 419.04 919.492 420.048 919.492 421.125Z" fill="#C1512D"/>
<path d="M945.529 418.034C945.529 418.298 945.489 418.568 945.4 418.832C944.958 420.182 943.508 420.915 942.161 420.473C941.078 420.12 940.391 419.115 940.391 418.034C940.391 417.768 940.431 417.498 940.52 417.234C940.962 415.887 942.411 415.151 943.759 415.593C944.842 415.946 945.529 416.954 945.529 418.034Z" fill="#C1512D"/>
<path d="M904.246 812.692C904.246 812.959 904.205 813.228 904.117 813.495C903.675 814.842 902.225 815.575 900.878 815.133C899.795 814.78 899.107 813.775 899.107 812.694C899.107 812.428 899.151 812.158 899.237 811.894C899.679 810.547 901.128 809.811 902.476 810.253C903.559 810.609 904.246 811.614 904.246 812.692Z" fill="#C1512D"/>
<path d="M926.06 521.579C926.06 521.843 926.017 522.112 925.931 522.379C925.489 523.726 924.037 524.462 922.689 524.02C921.609 523.664 920.922 522.659 920.922 521.579C920.922 521.315 920.962 521.045 921.049 520.778C921.49 519.431 922.943 518.696 924.29 519.138C925.373 519.493 926.06 520.498 926.06 521.579Z" fill="#C1512D"/>
<path d="M953.838 506.457C953.838 506.721 953.797 506.993 953.708 507.257C953.266 508.604 951.817 509.34 950.469 508.898C949.386 508.542 948.699 507.537 948.699 506.459C948.699 506.193 948.742 505.923 948.829 505.656C949.27 504.309 950.72 503.576 952.067 504.018C953.151 504.371 953.838 505.376 953.838 506.457Z" fill="#C1512D"/>
<path d="M974.456 437.16C973.774 436.68 973.367 435.891 973.367 435.061C973.367 434.794 973.408 434.525 973.497 434.261C973.564 434.051 973.658 433.854 973.771 433.676C974.003 434.835 974.232 435.999 974.456 437.16Z" fill="#C1512D"/>
<path d="M980.716 536.784C980.716 537.05 980.676 537.32 980.587 537.584C980.145 538.934 978.696 539.667 977.348 539.225C976.265 538.872 975.578 537.867 975.578 536.786C975.578 536.52 975.619 536.25 975.707 535.986C976.149 534.639 977.599 533.903 978.946 534.345C980.029 534.698 980.716 535.703 980.716 536.784Z" fill="#C1512D"/>
<path d="M745.079 946.491C745.079 946.687 745.05 946.886 744.985 947.083C744.656 948.081 743.584 948.624 742.587 948.298C741.784 948.035 741.277 947.291 741.277 946.491C741.277 946.295 741.307 946.096 741.372 945.899C741.698 944.902 742.773 944.358 743.77 944.685C744.57 944.947 745.079 945.691 745.079 946.491Z" fill="#C1512D"/>
<path d="M827.976 898.919C827.976 899.116 827.946 899.315 827.881 899.512C827.555 900.509 826.48 901.053 825.483 900.724C824.683 900.463 824.174 899.719 824.174 898.919C824.174 898.722 824.203 898.523 824.268 898.326C824.597 897.329 825.669 896.785 826.666 897.114C827.469 897.375 827.976 898.119 827.976 898.919Z" fill="#C1512D"/>
<path d="M763.394 940.406C763.394 940.602 763.364 940.801 763.299 940.998C762.973 941.996 761.898 942.539 760.901 942.213C760.101 941.95 759.592 941.206 759.592 940.406C759.592 940.21 759.621 940.011 759.686 939.814C760.015 938.816 761.087 938.273 762.084 938.6C762.887 938.862 763.394 939.606 763.394 940.406Z" fill="#C1512D"/>
<path d="M899.641 607.638C899.641 610.036 898.62 612.421 896.639 614.083C893.082 617.072 887.774 616.611 884.786 613.051C883.463 611.475 882.816 609.557 882.816 607.646C882.816 605.248 883.838 602.864 885.818 601.201C889.378 598.213 894.683 598.674 897.671 602.233C898.994 603.809 899.641 605.728 899.641 607.638Z" fill="#C1512D"/>
<path d="M949.824 381.408C949.824 383.809 948.803 386.191 946.823 387.856C943.263 390.842 937.958 390.381 934.97 386.824C933.647 385.245 933 383.327 933 381.416C933 379.018 934.021 376.634 936.002 374.971C939.558 371.983 944.867 372.444 947.855 376.003C949.178 377.579 949.824 379.498 949.824 381.408Z" fill="#C1512D"/>
<path d="M923.889 594.732C923.889 595.931 923.377 597.122 922.388 597.954C920.61 599.447 917.956 599.218 916.46 597.44C915.8 596.65 915.477 595.691 915.477 594.734C915.477 593.535 915.986 592.344 916.977 591.512C918.756 590.019 921.41 590.248 922.903 592.029C923.565 592.816 923.889 593.775 923.889 594.732Z" fill="#C1512D"/>
<path d="M943.794 594.745C943.794 596.211 943.168 597.666 941.959 598.682C939.787 600.506 936.548 600.226 934.724 598.052C933.916 597.09 933.52 595.917 933.52 594.753C933.52 593.288 934.145 591.833 935.354 590.817C937.526 588.993 940.765 589.273 942.589 591.447C943.397 592.409 943.794 593.581 943.794 594.745Z" fill="#C1512D"/>
<path d="M932.198 568.99C932.198 570.456 931.575 571.911 930.366 572.927C928.191 574.751 924.952 574.468 923.128 572.297C922.32 571.335 921.924 570.162 921.924 568.996C921.924 567.53 922.549 566.075 923.759 565.059C925.93 563.235 929.169 563.518 930.993 565.69C931.802 566.652 932.198 567.826 932.198 568.99Z" fill="#C1512D"/>
<path d="M934.435 615.94C934.435 616.92 934.017 617.896 933.209 618.575C931.754 619.796 929.585 619.607 928.364 618.152C927.823 617.508 927.559 616.724 927.559 615.945C927.559 614.964 927.976 613.989 928.787 613.31C930.24 612.089 932.409 612.278 933.629 613.73C934.171 614.374 934.435 615.161 934.435 615.94Z" fill="#C1512D"/>
<path d="M899.046 625.934C899.046 626.914 898.629 627.89 897.82 628.569C896.365 629.789 894.196 629.601 892.976 628.148C892.434 627.504 892.17 626.718 892.17 625.939C892.17 624.958 892.588 623.983 893.396 623.304C894.851 622.083 897.02 622.272 898.241 623.727C898.782 624.371 899.046 625.155 899.046 625.934Z" fill="#C1512D"/>
<path d="M920.799 611.426C920.796 612.159 920.486 612.887 919.88 613.396C918.794 614.307 917.174 614.167 916.261 613.081C915.857 612.599 915.66 612.014 915.66 611.429C915.66 610.696 915.973 609.969 916.576 609.462C917.662 608.549 919.284 608.692 920.195 609.777C920.599 610.257 920.799 610.844 920.799 611.426Z" fill="#C1512D"/>
<path d="M958.599 601.328C958.599 601.87 958.37 602.408 957.923 602.786C957.117 603.459 955.918 603.357 955.244 602.551C954.945 602.196 954.797 601.762 954.797 601.331C954.797 600.789 955.029 600.25 955.476 599.873C956.282 599.199 957.481 599.304 958.154 600.107C958.453 600.463 958.599 600.897 958.599 601.328Z" fill="#C1512D"/>
<path d="M959.78 620.593C959.78 621.135 959.549 621.674 959.101 622.048C958.298 622.724 957.099 622.619 956.423 621.816C956.124 621.461 955.979 621.027 955.979 620.596C955.979 620.051 956.21 619.515 956.658 619.138C957.46 618.462 958.66 618.567 959.336 619.37C959.635 619.728 959.78 620.162 959.78 620.593Z" fill="#C1512D"/>
<path d="M932.9 635.879C932.9 636.421 932.668 636.96 932.221 637.334C931.418 638.01 930.219 637.905 929.542 637.102C929.243 636.744 929.098 636.313 929.098 635.879C929.098 635.338 929.329 634.799 929.777 634.424C930.58 633.748 931.779 633.853 932.455 634.656C932.754 635.014 932.9 635.448 932.9 635.879Z" fill="#C1512D"/>
<path d="M856.715 247.349C856.715 248.119 856.607 248.885 856.402 249.623C854.386 247.087 852.341 244.576 850.256 242.086C849.326 241.049 848.391 240.014 847.454 238.982C850.824 238.643 854.209 240.373 855.817 243.579C856.426 244.792 856.715 246.08 856.715 247.349ZM854.866 252.616C854.133 253.533 853.193 254.311 852.075 254.872C847.922 256.957 842.868 255.281 840.782 251.129C840.173 249.917 839.885 248.629 839.885 247.359C839.885 244.328 841.528 241.41 844.382 239.909C847.96 244.083 851.452 248.319 854.866 252.616Z" fill="#C1512D"/>
<path d="M850.294 215.815C850.294 218.895 848.596 221.862 845.654 223.338C845.158 223.589 844.646 223.786 844.132 223.929C840.788 220.277 837.376 216.691 833.898 213.167C834.577 211.127 836.032 209.343 838.104 208.303C842.256 206.218 847.314 207.894 849.397 212.046C850.006 213.258 850.294 214.546 850.294 215.815ZM843.609 224.055C839.961 224.823 836.113 223.082 834.361 219.596C833.755 218.386 833.467 217.095 833.467 215.826C833.467 215.061 833.572 214.301 833.774 213.568C837.118 217.014 840.397 220.512 843.609 224.055Z" fill="#C1512D"/>
<path d="M829.391 268.371C829.391 269.912 828.542 271.394 827.071 272.133C824.996 273.175 822.469 272.337 821.426 270.263C821.121 269.656 820.979 269.012 820.979 268.376C820.979 266.838 821.827 265.353 823.296 264.615C825.373 263.572 827.901 264.41 828.943 266.488C829.248 267.091 829.391 267.738 829.391 268.371Z" fill="#C1512D"/>
<path d="M822.827 285.802C822.827 287.682 821.79 289.493 819.995 290.396C817.459 291.668 814.372 290.644 813.1 288.111C812.728 287.37 812.553 286.583 812.553 285.81C812.553 283.929 813.59 282.116 815.385 281.216C817.92 279.941 821.005 280.965 822.28 283.501C822.652 284.239 822.827 285.026 822.827 285.802Z" fill="#C1512D"/>
<path d="M803.762 264.96C803.762 266.841 802.725 268.654 800.931 269.554C798.395 270.829 795.307 269.805 794.035 267.269C793.663 266.531 793.488 265.744 793.488 264.968C793.488 263.088 794.526 261.277 796.32 260.374C798.856 259.102 801.944 260.126 803.215 262.659C803.587 263.4 803.762 264.187 803.762 264.96Z" fill="#C1512D"/>
<path d="M843.623 287.157C843.623 288.415 842.928 289.628 841.726 290.231C840.029 291.083 837.962 290.399 837.111 288.704C836.863 288.208 836.744 287.68 836.744 287.162C836.744 285.904 837.439 284.692 838.641 284.088C840.339 283.237 842.405 283.921 843.257 285.616C843.505 286.112 843.623 286.64 843.623 287.157Z" fill="#C1512D"/>
<path d="M866.806 258.611C866.806 259.692 866.297 260.737 865.394 261.392C864.039 259.549 862.665 257.711 861.274 255.887C861.444 255.758 861.627 255.642 861.827 255.542C863.522 254.691 865.588 255.375 866.44 257.073C866.688 257.566 866.806 258.094 866.806 258.611ZM861.824 261.688C861.185 261.368 860.641 260.845 860.296 260.158C860.145 259.856 860.043 259.546 859.986 259.231C860.601 260.048 861.215 260.867 861.824 261.688Z" fill="#C1512D"/>
<path d="M843.66 273.644C843.66 274.584 843.143 275.493 842.243 275.943C840.976 276.578 839.432 276.066 838.796 274.8C838.61 274.431 838.521 274.038 838.521 273.65C838.521 272.709 839.042 271.804 839.939 271.351C841.205 270.715 842.749 271.227 843.388 272.494C843.571 272.865 843.66 273.259 843.66 273.644Z" fill="#C1512D"/>
<path d="M818.494 304.979C818.494 305.674 818.109 306.345 817.443 306.679C816.506 307.151 815.363 306.771 814.892 305.833C814.754 305.558 814.689 305.267 814.689 304.982C814.689 304.287 815.075 303.616 815.738 303.281C816.678 302.81 817.818 303.19 818.289 304.128C818.427 304.4 818.494 304.691 818.494 304.979Z" fill="#C1512D"/>
<path d="M835.716 313.684C835.716 314.382 835.333 315.05 834.668 315.384C833.73 315.856 832.588 315.476 832.116 314.538C831.979 314.266 831.914 313.975 831.914 313.687C831.914 312.992 832.297 312.321 832.962 311.987C833.9 311.515 835.042 311.895 835.514 312.833C835.651 313.107 835.716 313.398 835.716 313.684Z" fill="#C1512D"/>
<path d="M860.394 295.049C860.394 295.747 860.008 296.415 859.346 296.75C858.408 297.221 857.265 296.841 856.794 295.903C856.656 295.631 856.592 295.34 856.592 295.052C856.592 294.357 856.974 293.686 857.64 293.352C858.578 292.88 859.72 293.26 860.192 294.198C860.329 294.473 860.394 294.764 860.394 295.049Z" fill="#C1512D"/>
<path d="M898.008 347.678C898.008 348.222 897.954 348.775 897.843 349.33C896.935 353.886 892.505 356.845 887.949 355.937C883.948 355.139 881.178 351.625 881.178 347.694C881.178 347.15 881.232 346.598 881.342 346.043C882.25 341.486 886.68 338.528 891.236 339.436C895.238 340.233 898.008 343.747 898.008 347.678Z" fill="#C1512D"/>
<path d="M912.327 318.858C912.327 319.402 912.274 319.954 912.163 320.509C911.894 321.859 911.317 323.069 910.517 324.079C908.445 319.523 906.265 314.977 903.983 310.453C904.5 310.459 905.028 310.51 905.556 310.615C909.558 311.413 912.327 314.926 912.327 318.858ZM910.457 324.155C909.002 325.952 906.844 327.1 904.489 327.262C902.301 322.584 900.006 317.923 897.607 313.293C899.135 311.572 901.337 310.51 903.705 310.453C906.057 314.999 908.307 319.569 910.457 324.155Z" fill="#C1512D"/>
<path d="M902.496 327.16C902.418 327.147 902.343 327.133 902.267 327.117C898.266 326.319 895.496 322.806 895.496 318.877C895.496 318.33 895.55 317.778 895.66 317.223C895.798 316.533 896.016 315.878 896.304 315.269C898.425 319.206 900.486 323.17 902.496 327.16Z" fill="#C1512D"/>
<path d="M862.645 350.053C862.645 350.327 862.618 350.602 862.565 350.88C862.109 353.159 859.894 354.639 857.617 354.183C855.615 353.784 854.23 352.028 854.23 350.063C854.23 349.791 854.257 349.514 854.314 349.236C854.767 346.959 856.982 345.48 859.261 345.933C861.26 346.331 862.645 348.088 862.645 350.053Z" fill="#C1512D"/>
<path d="M846.95 359.194C846.95 359.528 846.918 359.865 846.85 360.202C846.295 362.985 843.59 364.791 840.809 364.238C838.365 363.751 836.676 361.606 836.676 359.205C836.676 358.874 836.708 358.534 836.776 358.197C837.328 355.414 840.033 353.609 842.817 354.161C845.26 354.649 846.95 356.794 846.95 359.194Z" fill="#C1512D"/>
<path d="M844.724 331.037C844.724 331.371 844.692 331.708 844.624 332.048C844.069 334.828 841.364 336.636 838.581 336.081C836.139 335.594 834.447 333.449 834.447 331.051C834.447 330.717 834.48 330.38 834.547 330.04C835.102 327.26 837.807 325.452 840.588 326.007C843.032 326.494 844.724 328.639 844.724 331.037Z" fill="#C1512D"/>
<path d="M862.162 374.093C862.162 374.313 862.14 374.54 862.094 374.766C861.725 376.628 859.914 377.838 858.052 377.466C856.417 377.14 855.285 375.704 855.285 374.098C855.285 373.877 855.307 373.651 855.353 373.424C855.722 371.562 857.532 370.353 859.394 370.724C861.03 371.05 862.162 372.487 862.162 374.093Z" fill="#C1512D"/>
<path d="M897.996 365.826C897.996 366.05 897.974 366.276 897.928 366.502C897.559 368.364 895.748 369.574 893.886 369.202C892.251 368.876 891.119 367.44 891.119 365.834C891.119 365.611 891.141 365.387 891.187 365.161C891.556 363.296 893.366 362.089 895.228 362.461C896.864 362.784 897.996 364.22 897.996 365.826Z" fill="#C1512D"/>
<path d="M870.314 363.994C870.314 364.158 870.298 364.328 870.263 364.498C869.988 365.888 868.635 366.791 867.242 366.513C866.022 366.271 865.176 365.198 865.176 363.999C865.176 363.832 865.192 363.663 865.227 363.493C865.504 362.102 866.857 361.2 868.247 361.477C869.468 361.72 870.314 362.792 870.314 363.994Z" fill="#C1512D"/>
<path d="M831.06 373.647C831.06 373.771 831.049 373.895 831.025 374.019C830.82 375.051 829.818 375.719 828.788 375.512C827.883 375.334 827.258 374.539 827.258 373.65C827.258 373.529 827.271 373.402 827.296 373.278C827.5 372.249 828.503 371.581 829.532 371.786C830.435 371.966 831.06 372.758 831.06 373.647Z" fill="#C1512D"/>
<path d="M839.299 391.103C839.299 391.227 839.285 391.35 839.261 391.477C839.056 392.506 838.054 393.175 837.025 392.97C836.119 392.789 835.494 391.994 835.494 391.108C835.494 390.984 835.508 390.86 835.532 390.733C835.737 389.704 836.739 389.036 837.768 389.241C838.671 389.421 839.299 390.216 839.299 391.103Z" fill="#C1512D"/>
<path d="M870.214 391.571C870.214 391.695 870.203 391.819 870.176 391.943C869.972 392.975 868.972 393.643 867.943 393.436C867.037 393.258 866.412 392.463 866.412 391.574C866.412 391.453 866.423 391.326 866.45 391.202C866.655 390.173 867.654 389.505 868.684 389.709C869.589 389.89 870.214 390.682 870.214 391.571Z" fill="#C1512D"/>
<path d="M811.415 891.492C811.415 891.686 811.386 891.886 811.321 892.082C810.995 893.082 809.92 893.624 808.923 893.298C808.123 893.036 807.613 892.293 807.613 891.492C807.613 891.296 807.643 891.096 807.708 890.9C808.036 889.903 809.109 889.358 810.106 889.684C810.909 889.948 811.415 890.692 811.415 891.492Z" fill="#C1512D"/>
<path d="M528.606 935.441C525.249 935.445 521.891 935.406 518.531 935.325C520.032 934.23 521.905 933.621 523.904 933.719C525.677 933.806 527.296 934.436 528.606 935.441Z" fill="#C1512D"/>
<path d="M578.025 932.316C576.678 932.481 575.33 932.64 573.98 932.792C574.808 932.312 575.78 932.057 576.807 932.108C577.23 932.129 577.637 932.2 578.025 932.316Z" fill="#C1512D"/>
<path d="M685.002 960.931C685.002 961.016 684.999 961.102 684.997 961.188C684.856 964.021 682.448 966.205 679.613 966.066C676.867 965.931 674.73 963.661 674.73 960.94C674.73 960.855 674.73 960.769 674.736 960.684C674.766 960.082 674.898 959.511 675.113 958.984C677.482 958.125 679.842 957.249 682.194 956.356C683.87 957.209 685.002 958.951 685.002 960.931Z" fill="#C1512D"/>
<path d="M549.337 989.203C549.337 989.245 549.337 989.288 549.334 989.331C549.264 990.748 548.06 991.84 546.642 991.77C545.268 991.703 544.201 990.568 544.201 989.207C544.201 989.165 544.201 989.122 544.204 989.079C544.274 987.662 545.478 986.57 546.896 986.64C548.267 986.707 549.337 987.843 549.337 989.203Z" fill="#C1512D"/>
<path d="M592.819 993.944C592.819 993.976 592.817 994.007 592.817 994.039C592.766 995.088 591.874 995.896 590.826 995.844C589.807 995.794 589.018 994.955 589.018 993.947V993.852C589.071 992.804 589.963 991.996 591.011 992.047C592.027 992.097 592.819 992.937 592.819 993.944Z" fill="#C1512D"/>
<path d="M640.47 978.615V978.71C640.416 979.759 639.527 980.567 638.476 980.515C637.46 980.465 636.668 979.625 636.668 978.618C636.668 978.587 636.671 978.555 636.671 978.523C636.722 977.475 637.614 976.667 638.665 976.718C639.68 976.768 640.473 977.608 640.47 978.615Z" fill="#C1512D"/>
<path d="M668.132 988.892C668.132 988.924 668.129 988.956 668.129 988.987C668.078 990.036 667.186 990.844 666.135 990.793C665.12 990.743 664.33 989.903 664.33 988.896V988.801C664.384 987.752 665.273 986.944 666.324 986.995C667.34 987.046 668.132 987.885 668.132 988.892Z" fill="#C1512D"/>
<path d="M428.454 77.1346C428.454 79.2256 427.678 81.3219 426.118 82.9521C422.906 86.3067 417.579 86.4226 414.224 83.2107C412.513 81.5725 411.643 79.3845 411.627 77.1912C416.973 75.941 422.346 74.7851 427.735 73.7261C428.212 74.8066 428.454 75.9706 428.454 77.1346Z" fill="#C1512D"/>
<path d="M389.627 65.5485C389.568 65.6562 389.504 65.764 389.436 65.8691C387.272 66.478 385.114 67.1032 382.959 67.7418C382.851 67.6906 382.746 67.6367 382.641 67.5801C384.969 66.8823 387.297 66.2059 389.627 65.5485ZM389.431 65.8799C389.258 66.1439 389.059 66.3972 388.833 66.6317C387.272 68.2618 384.899 68.6418 382.961 67.7418C385.125 67.1005 387.281 66.4808 389.431 65.8799Z" fill="#C1512D"/>
<path d="M362.1 136.284C361.951 137.308 361.496 138.3 360.725 139.103C359.507 140.375 357.794 140.887 356.18 140.62C358.025 139.146 360.001 137.699 362.1 136.284Z" fill="#C1512D"/>
<path d="M399.192 95.78L396.573 96.4779C395.614 96.742 394.649 96.9898 393.688 97.2431C393.733 97.1919 393.779 97.1435 393.825 97.0923C395.253 95.6022 397.36 95.1603 399.192 95.78Z" fill="#C1512D"/>
<path d="M374.806 99.7063C374.806 100.178 374.631 100.652 374.278 101.019C373.553 101.778 372.348 101.805 371.591 101.078C371.201 100.706 371.004 100.205 371.004 99.7036C371.004 99.2321 371.179 98.7578 371.532 98.3914C372.257 97.6315 373.461 97.6073 374.221 98.3321C374.609 98.704 374.806 99.2052 374.806 99.7063Z" fill="#C1512D"/>
<path d="M340.328 87.5727C337.205 88.7691 334.098 89.9978 331.002 91.2588C330.959 90.992 330.938 90.7226 330.938 90.4558C330.938 89.1786 331.412 87.8988 332.363 86.9045C334.324 84.854 337.577 84.7839 339.627 86.7455C339.894 87.0015 340.126 87.279 340.328 87.5727Z" fill="#C1512D"/>
<path d="M327.432 122.194C326.228 122.757 325.026 123.329 323.824 123.905C323.929 123.48 324.142 123.073 324.466 122.733C325.255 121.911 326.459 121.725 327.432 122.194Z" fill="#C1512D"/>
<path d="M428.505 458.693L445.843 460.137L460.291 465.917L468.96 471.696L486.297 487.589L536.866 538.157L551.314 549.716L565.762 562.719L571.541 564.164L601.883 546.826L617.776 536.712L622.11 535.268H636.558L646.672 539.602L655.341 545.381L672.678 561.274L692.906 577.167L713.133 591.615L736.25 606.063L733.361 607.508H730.471L769.481 626.291L776.705 629.18L770.926 630.625L734.806 619.067L716.023 610.398L713.133 611.843L718.913 616.177L711.688 614.732L684.237 600.284L653.896 580.057L636.558 567.053L626.444 568.498L598.993 582.946L594.658 584.391L613.441 597.395L635.113 610.398L643.782 614.732L639.448 616.177L617.776 606.063L645.227 620.512L677.013 633.515L671.234 634.96L648.117 627.736L635.113 624.846L609.107 613.287L606.217 614.732L614.886 619.067L610.551 620.512L583.1 607.508L554.204 590.17L525.307 569.943L505.08 554.05L480.518 533.823L466.07 520.819L447.287 506.371L434.284 509.261L432.839 515.04L414.057 532.378L399.608 545.381L383.716 558.385L376.491 564.164L373.602 562.719L389.495 548.271L405.388 535.268L408.277 530.933L390.94 546.826L370.712 562.719L347.595 581.502L323.033 598.839L299.916 613.287L271.02 630.625L256.572 636.405L236.344 646.518L221.896 650.853L223.341 647.963L255.127 630.625L256.572 626.291L276.799 613.287L304.251 593.06L323.033 577.167L310.03 585.836L289.803 601.729L282.579 604.619L266.686 614.732L247.903 626.291L243.569 624.846L234.9 629.18V633.515L229.12 634.96L227.676 633.515L195.89 647.963L193 646.518L197.334 643.629L195.89 640.739L220.451 627.736L252.237 606.063L256.572 601.729L237.789 614.732L234.9 613.287L255.127 597.395L271.02 584.391L289.803 567.053L301.361 556.94L314.364 543.936L325.923 533.823L340.371 519.375L351.93 509.261L373.602 489.034L392.384 474.585L411.167 463.027L428.505 458.693Z" fill="#C1512D"/>
<path d="M363.455 695.642H486.264L609.073 699.976L687.093 702.866V705.756L694.317 707.2L743.441 710.09L744.886 712.98L704.431 715.869H614.852V718.759H643.749V720.204L585.956 721.649L584.511 723.093L542.612 724.538L460.257 725.983H409.689L336.003 723.093L304.217 720.204L285.435 717.314L278.211 715.869L275.321 712.98L243.535 710.09V707.2L309.997 698.531L363.455 695.642Z" fill="#C1512D"/>
<path d="M424.137 746.21H532.498L581.621 749.1L601.849 751.99L633.634 753.434L632.19 756.324L565.728 759.214L564.283 762.103H450.143L425.581 760.658L418.357 759.214L402.464 757.769V756.324L346.117 753.434L344.672 750.545L412.578 747.655L424.137 746.21Z" fill="#C1512D"/>
<path d="M431.403 780.886H451.63L481.971 782.331L486.306 783.776L515.202 785.221L512.312 788.11L481.971 789.555L471.858 791H418.4L364.941 786.666V785.221L395.283 783.776L405.396 782.331L431.403 780.886Z" fill="#C1512D"/>
<path d="M428.992 307H446.33L462.223 312.779L475.226 322.893L482.451 331.562L481.006 337.341H485.34L486.785 347.455L485.34 350.344L489.675 351.789V366.237L485.34 380.685L475.226 396.578L463.668 405.247L457.889 406.692L449.22 411.027H428.992L415.989 408.137V403.802L405.875 400.913L395.762 393.689L388.538 382.13L384.203 369.127V350.344L389.982 334.451L400.096 321.448L411.655 312.779L424.658 308.445L428.992 307Z" fill="#C1512D"/>
<path d="M653.4 323.2C653.666 322.8 654.1 322.2 654.7 321.4C655.3 320.533 655.8 319.9 656.2 319.5C656.6 319.033 656.933 318.8 657.2 318.8C657.6 318.8 658.733 319.567 660.6 321.1C662.533 322.567 664.333 324.1 666 325.7C667.666 327.3 668.5 328.333 668.5 328.8C668.3 329.867 667.4 330.4 665.8 330.4H639.8V362.5C639.8 363.3 640 363.867 640.4 364.2C640.866 364.467 641.766 364.6 643.1 364.6H651C654.533 364.6 656.666 364.567 657.4 364.5C658.066 364.433 658.533 364.3 658.8 364.1C659.133 363.9 659.5 363.5 659.9 362.9C660.566 361.567 661.7 358 663.3 352.2L664.4 348.5H665.5L665.8 363.6C667.2 364.2 668.166 364.9 668.7 365.7C669.233 366.5 669.5 367.5 669.5 368.7C669.5 370.433 668.933 371.833 667.8 372.9C666.666 373.967 664.666 374.767 661.8 375.3C658.933 375.833 654.9 376.1 649.7 376.1H640.4C637.133 376.1 634.633 375.8 632.9 375.2C631.233 374.6 630.066 373.567 629.4 372.1C628.8 370.7 628.5 368.567 628.5 365.7V330.4H617.8C617.133 338.933 615.533 346.333 613 352.6C610.466 358.8 606.466 364.167 601 368.7C595.533 373.167 588.266 376.667 579.2 379.2L578.7 378C585.166 374.4 590.266 370.267 594 365.6C597.733 360.867 600.366 355.667 601.9 350C603.433 344.333 604.333 337.8 604.6 330.4H596.1C591.366 330.467 586.366 330.933 581.1 331.8L578.6 326.8C582.266 327.2 586.7 327.467 591.9 327.6H618V308H601.9C597.566 315.2 592.333 321 586.2 325.4L585 324.5C587.733 319.9 590.166 314.433 592.3 308.1C593.366 304.967 594.266 301.267 595 297C595.8 292.733 596.166 289.233 596.1 286.5C606.233 289.3 611.3 291.2 611.3 292.2C611.3 292.467 611.033 292.7 610.5 292.9L608.7 293.7C607.1 298.033 605.4 301.867 603.6 305.2H618V305.1C618 296.7 617.566 289.867 616.7 284.6C622.566 285.8 626.6 286.767 628.8 287.5C631.066 288.233 632.2 288.833 632.2 289.3C632.2 289.5 631.933 289.8 631.4 290.2L629.7 291.4V305.2H644.1L647 301.2C647.333 300.8 647.766 300.2 648.3 299.4C648.833 298.6 649.266 298.033 649.6 297.7C650 297.3 650.333 297.1 650.6 297.1C651 297.1 652.133 297.8 654 299.2C655.866 300.6 657.6 302.067 659.2 303.6C660.866 305.067 661.7 306.033 661.7 306.5C661.433 307.5 660.566 308 659.1 308H629.7V327.6H650.4L653.4 323.2Z" fill="#C1512D"/>
<path d="M645 453.8C645.4 453.333 645.9 452.7 646.5 451.9C647.1 451.033 647.566 450.4 647.9 450C648.3 449.6 648.633 449.4 648.9 449.4C649.3 449.4 650.5 450.167 652.5 451.7C654.5 453.167 656.4 454.7 658.2 456.3C660 457.9 660.9 458.933 660.9 459.4C660.633 460.467 659.766 461 658.3 461H629.9V491H649.6L652.8 486.5C653.066 486.1 653.533 485.467 654.2 484.6C654.866 483.667 655.4 483 655.8 482.6C656.2 482.133 656.533 481.9 656.8 481.9C657.2 481.9 658.433 482.7 660.5 484.3C662.566 485.833 664.5 487.433 666.3 489.1C668.166 490.767 669.1 491.833 669.1 492.3C668.833 493.367 667.9 493.9 666.3 493.9H595.7C590.966 493.967 585.966 494.433 580.7 495.3L578.2 490.2C581.866 490.6 586.3 490.867 591.5 491H617.5V461H607.1C602.366 461.067 597.366 461.533 592.1 462.4L589.5 457.3C593.166 457.7 597.6 457.967 602.8 458.1H617.5V432.5H600.5C594.433 442.833 587.333 451 579.2 457L578.1 456.1C582.833 448.9 586.966 440 590.5 429.4C591.566 426.2 592.533 422.467 593.4 418.2C594.266 413.933 594.733 410.467 594.8 407.8L612.1 413.5C611.966 414.1 611.566 414.6 610.9 415C610.3 415.4 609.466 415.6 608.4 415.6C606.066 421.533 603.933 426.233 602 429.7H617.5V425.5C617.5 417.1 617.066 410.267 616.2 405L633.4 407.1C633.266 407.9 632.933 408.533 632.4 409C631.933 409.467 631.1 409.8 629.9 410V429.7H645L648.1 425.5C648.433 425.033 648.9 424.4 649.5 423.6C650.1 422.8 650.566 422.2 650.9 421.8C651.3 421.4 651.633 421.2 651.9 421.2C652.3 421.2 653.466 421.933 655.4 423.4C657.4 424.8 659.266 426.3 661 427.9C662.8 429.433 663.7 430.433 663.7 430.9C663.5 431.967 662.566 432.5 660.9 432.5H629.9V458.1H641.9L645 453.8Z" fill="#C1512D"/>
</svg>
