<svg width="1024" height="1024" viewBox="0 0 1024 1024" fill="none" xmlns="http://www.w3.org/2000/svg">
<path d="M898.596 253.155C913.429 273.084 926.681 294.292 938.14 316.341C940.897 321.908 943.651 327.472 946.402 333.025C948.881 338.708 951.359 344.38 953.83 350.044C955.113 352.857 956.204 355.745 957.287 358.631L960.564 367.275C961.628 370.164 962.79 373.012 963.765 375.924L966.61 384.673C970.587 396.268 973.597 408.089 976.653 419.796C977.954 425.705 979.25 431.593 980.544 437.459C981.244 440.38 981.67 443.349 982.193 446.294C982.694 449.242 983.195 452.184 983.696 455.121C984.17 458.061 984.744 460.976 985.13 463.916C985.491 466.858 985.849 469.793 986.207 472.722C986.563 475.651 986.916 478.571 987.272 481.484C987.436 482.945 987.644 484.397 987.776 485.855L988.102 490.225C988.53 496.051 988.956 501.844 989.379 507.602C989.543 513.374 989.705 519.11 989.867 524.812C989.201 488.336 984.488 451.961 975.567 416.657C982.182 443.139 985.852 468.157 987.452 493.388C987.617 496.546 987.781 499.707 987.945 502.873L988.18 507.623C988.22 508.666 988.217 509.709 988.215 510.754C988.212 511.301 988.209 511.848 988.215 512.395C988.207 518.771 988.22 525.186 988.126 531.672C987.759 538.147 987.39 544.705 987.013 551.374C986.889 554.71 986.38 558.048 986.051 561.43C985.674 564.806 985.294 568.215 984.911 571.658C984.669 567.447 984.771 562.079 985.019 556.254C985.208 550.428 985.157 544.12 985.264 538.071C985.264 537.107 985.275 536.145 985.289 535.194C985.318 533.17 985.345 531.19 985.224 529.279C985.086 526.471 984.925 523.817 984.728 521.406C984.332 516.588 983.788 512.751 982.971 510.622C980.385 444.82 964.296 379.551 936.235 320.024C922.181 290.283 905.224 261.899 885.393 235.759C865.596 209.601 843.138 185.555 818.545 164.199C840.694 178.041 855.597 193.415 867.183 208.634C868.641 210.534 870.08 212.409 871.503 214.265C872.923 216.122 874.316 217.965 875.582 219.894C878.169 223.68 880.718 227.409 883.251 231.117C884.533 232.949 885.81 234.776 887.088 236.603L890.768 242.189C893.261 245.891 895.845 249.539 898.596 253.155Z" fill="#C1512D"/>
<path d="M945.776 712.263C948.193 706.106 950.578 700.032 952.938 694.016C953.52 692.509 954.14 691.019 954.684 689.508C955.202 687.985 955.716 686.463 956.231 684.946C957.26 681.912 958.284 678.889 959.305 675.873C958.282 679.107 957.258 682.324 956.247 685.512C955.727 687.101 955.21 688.686 954.695 690.257C954.102 691.801 953.512 693.334 952.928 694.856C950.565 700.935 948.18 706.796 945.776 712.263Z" fill="#C1512D"/>
<path d="M165.132 263.243L159.051 272.07L156.006 276.465C154.987 277.926 154.101 279.472 153.142 280.968C151.247 283.969 149.361 286.96 147.486 289.935C145.621 292.91 143.652 295.796 141.986 298.835C143.528 295.693 145.425 292.745 147.246 289.733C149.116 286.745 150.991 283.746 152.869 280.736C153.839 279.249 154.737 277.713 155.777 276.269L158.884 271.928L165.132 263.243Z" fill="#C1512D"/>
<path d="M763.534 148.038C756.887 144.145 749.873 140.806 742.956 137.082C692.413 107.257 635.327 86.4231 575.011 77.6336C607.797 82.2223 641.379 89.7157 673.664 101.28C705.909 112.813 736.743 128.587 763.534 148.038Z" fill="#C1512D"/>
<path d="M810.26 191.131C832.743 210.399 853.167 232.421 870.584 256.119C888.02 279.807 902.439 305.148 913.47 330.746C902.123 305.305 887.673 280.327 870.339 256.761C853.016 233.192 832.815 211.048 810.26 191.131Z" fill="#C1512D"/>
<path d="M136.541 665.902C137.034 665.492 137.816 666.295 138.705 667.583C139.416 669.025 140.141 670.283 140.882 671.274C147.812 691.707 156.184 711.703 166.194 730.874C163.354 726.318 159.964 722.47 157.278 717.666C155.877 715.014 154.955 712.449 153.977 710.161C153.058 707.844 152.22 705.732 151.434 703.746C150.671 701.752 149.96 699.887 149.267 698.077C148.596 696.258 148.063 694.444 147.432 692.65C146.203 689.05 144.859 685.412 143.048 681.187C141.246 676.957 139.378 671.983 136.541 665.902Z" fill="#C1512D"/>
<path d="M174.795 250.604C175.021 250.156 175.253 249.695 175.487 249.237C178.459 245.333 181.318 241.421 184.506 237.802C184.937 237.414 185.336 237.053 185.813 236.622C183.989 238.944 182.005 241.138 180.24 243.528C178.43 245.877 176.616 248.235 174.795 250.604Z" fill="#C1512D"/>
<path d="M128.385 639.571C129.355 638.841 130.333 638.097 130.721 636.057C131.944 642.02 133.79 647.797 135.377 653.655C136.242 656.563 136.902 659.54 137.929 662.393L140.801 671.029C140.065 669.749 139.351 668.529 138.705 667.583C137.81 665.756 136.926 663.614 136.034 661.31C135.21 658.982 134.474 656.457 133.658 653.93C132.855 651.397 132.02 648.845 131.125 646.412C130.209 643.987 129.269 641.67 128.385 639.571Z" fill="#C1512D"/>
<path d="M154.597 371.406C157.738 364.441 158.469 357.279 159.455 353.722C169.777 336.588 180.833 320.109 194.89 301.535C196.571 298.313 200.937 292.07 204.353 285.6C207.789 282.849 211.308 279.769 214.891 276.447C181.989 315.417 155.828 361.809 139.122 413.298C139.556 411.536 140.138 409.814 140.72 408.087C141.294 406.357 141.873 404.622 142.45 402.881C143.616 399.402 144.789 395.902 145.971 392.375C147.359 388.921 148.755 385.445 150.164 381.937C151.63 378.455 152.931 374.869 154.597 371.406Z" fill="#C1512D"/>
<path d="M906.394 707.27C899.292 724.366 889.791 741.158 879.371 757.659C876.634 761.704 873.883 765.764 871.126 769.836L869.054 772.886C868.337 773.886 867.575 774.856 866.836 775.842L862.369 781.74C856.584 789.745 850.039 797.193 843.745 804.802C817.662 834.547 788.44 860.783 760.177 883.492C778.195 872.286 797.211 858.62 814.536 843.088C831.967 827.684 848.045 810.9 861.784 795.002C888.926 762.911 906.389 734.497 913.785 730.984C917.517 729.23 915.954 735.061 910.956 745.847C908.321 751.16 904.565 757.552 900.267 764.848C898.114 768.497 895.465 772.148 892.857 776.071C891.526 778.014 890.168 780.002 888.78 782.031C888.085 783.042 887.382 784.063 886.673 785.092C885.94 786.105 885.154 787.091 884.383 788.104C872.33 804.503 857.109 821.667 841.557 837.33C837.571 841.148 833.621 844.934 829.741 848.653C827.842 850.552 825.821 852.285 823.843 854.015C821.868 855.753 819.92 857.472 817.999 859.164C816.086 860.861 814.199 862.535 812.348 864.181C810.516 865.849 808.557 867.304 806.733 868.837C803.066 871.876 799.549 874.789 796.232 877.54C803.952 872.504 803.952 872.504 811.648 867.487C807.784 870.012 803.928 872.526 800.352 875.172C798.563 876.495 796.844 877.85 795.225 879.257C793.565 880.609 791.972 881.973 790.531 883.433C792.495 882.242 794.769 881.003 797.027 879.437C799.299 877.877 801.724 876.209 804.235 874.487C806.746 872.747 809.344 870.944 811.958 869.133C814.604 867.35 817.053 865.302 819.586 863.44C822.108 861.551 824.576 859.703 826.928 857.943C829.299 856.194 831.598 854.583 833.592 852.975C837.658 849.841 841.123 847.392 843.524 846.133C840.18 850.582 836.922 855.16 833.443 859.546C838.399 856.119 843.575 851.924 849.177 847.413C850.554 846.265 852.017 845.15 853.38 843.902C854.746 842.649 856.131 841.38 857.535 840.092C860.327 837.481 863.191 834.797 866.114 832.06C869.092 829.352 871.854 826.345 874.715 823.324C877.56 820.285 880.452 817.2 883.37 814.085C886.299 810.97 888.945 807.575 891.774 804.28C894.555 800.941 897.349 797.586 900.143 794.232C902.778 790.748 905.411 787.264 908.033 783.796C909.347 782.055 910.66 780.32 911.966 778.593L913.925 776.001L915.75 773.341C918.191 769.795 920.605 766.284 922.984 762.825C925.38 759.362 927.786 755.973 929.885 752.497C932.073 749.061 934.215 745.696 936.301 742.417C938.402 739.137 940.534 735.982 942.342 732.797C946.092 726.497 949.703 720.645 953.122 715.407C938.478 741.808 921.4 768.224 901.461 793.658C881.578 819.126 858.661 843.466 832.977 865.787C807.301 888.113 778.829 908.398 748.02 925.776C717.109 942.971 683.842 957.121 649.056 967.645C646.903 968.369 644.71 968.964 642.509 969.536L635.913 971.3C631.499 972.429 627.131 973.761 622.669 974.731C618.21 975.707 613.745 976.685 609.275 977.663C607.036 978.134 604.81 978.683 602.557 979.091L595.781 980.249C591.259 981.022 586.738 981.795 582.209 982.569L568.523 984.283C559.405 985.601 550.19 986.03 540.991 986.787L537.539 987.047L534.079 987.145L527.155 987.342C522.536 987.431 517.915 987.694 513.291 987.636L499.42 987.364L492.479 987.206L485.552 986.736L471.694 985.788C467.083 985.374 462.495 984.747 457.892 984.233C448.664 983.338 439.556 981.649 430.427 980.127C425.841 979.452 421.339 978.391 416.82 977.405L403.272 974.428L389.9 970.809C385.462 969.551 380.956 968.499 376.61 966.969C372.229 965.535 367.85 964.102 363.477 962.67C361.303 961.924 359.083 961.297 356.946 960.452L350.511 957.983C346.227 956.332 341.943 954.682 337.667 953.035C333.415 951.327 329.273 949.364 325.081 947.539C320.92 945.642 316.682 943.913 312.602 941.871C308.528 939.807 304.462 937.746 300.402 935.689L294.32 932.595C292.305 931.543 290.362 930.36 288.382 929.25C284.442 926.99 280.508 924.734 276.582 922.481C272.603 920.312 268.903 917.701 265.08 915.309C261.288 912.86 257.503 910.413 253.728 907.975C250.074 905.353 246.428 902.734 242.791 900.123C239.175 897.477 235.459 894.982 232.032 892.12C200.25 868.021 171.502 840.785 147.063 810.636C144.021 806.864 140.914 803.14 137.932 799.335C135.054 795.444 132.184 791.567 129.32 787.695L125.025 781.88L121.005 775.898C118.324 771.908 115.645 767.925 112.975 763.951C102.871 747.698 93.1706 731.251 85.0289 714.154C76.4833 697.23 69.5328 679.716 62.9526 662.161C56.9245 644.442 51.3164 626.612 47.2693 608.505C46.2413 603.984 45.1417 599.476 44.1814 594.947C43.3474 590.393 42.5151 585.847 41.6849 581.31C39.8381 572.24 38.9069 563.087 37.6098 553.974C36.9049 549.418 36.6664 544.842 36.2259 540.275C35.8328 535.697 35.4402 531.13 35.0486 526.571C34.8684 521.996 34.6884 517.431 34.5087 512.875C34.3896 508.316 34.0277 503.743 34.164 499.195C34.2651 495.759 34.4462 491.72 34.7003 487.191C34.8369 484.928 34.9818 482.54 35.133 480.045C35.3264 477.556 35.6797 474.971 35.9774 472.282C36.6125 466.915 37.3093 461.17 38.1053 455.172C39.1809 449.215 40.304 442.999 41.4551 436.626C46.4995 411.222 54.6969 384.016 63.1568 361.991C76.9597 322.6 95.5892 284.783 118.59 249.709L127.512 236.759C129.016 234.611 130.454 232.415 132.014 230.311L136.773 224.052L146.32 211.544L156.405 199.475L161.46 193.44L166.768 187.641L177.403 176.039C181.114 172.331 184.821 168.623 188.523 164.921L194.096 159.36C195.998 157.557 197.954 155.814 199.881 154.038C204.1 150.373 208.317 146.712 212.529 143.055C216.918 139.609 221.302 136.165 225.686 132.727C227.901 131.038 230.046 129.249 232.325 127.653L239.153 122.844L245.994 118.056C248.282 116.471 250.537 114.833 252.917 113.394L267.055 104.537L270.598 102.339L274.233 100.299L281.513 96.2355C291.13 90.6444 301.213 85.9561 311.182 81.0413C351.581 62.5301 394.486 49.3054 438.823 42.5961C527.373 28.838 621.338 39.6133 709.246 76.299C713.641 78.0773 718.06 80.3649 722.398 82.5852C726.709 84.8674 730.931 87.112 734.636 89.4778C741.992 94.3306 747.694 98.7603 749.701 101.369C751.714 103.979 750.041 104.769 742.733 102.436C739.063 101.309 734.06 99.2426 727.259 96.54C723.826 95.2574 719.97 93.762 715.656 92.0375C711.326 90.3508 706.622 88.2383 701.208 86.3872C665.657 73.4967 628.707 64.2034 591.127 58.9222C553.523 53.7838 515.315 52.9269 477.441 56.0498C479.572 55.1283 483.452 54.3927 488.338 53.7595C490.779 53.4415 493.471 53.1506 496.319 52.8757C499.175 52.7006 502.187 52.5955 505.264 52.4716C508.344 52.3557 511.483 52.2397 514.598 52.1212C516.156 52.0592 517.705 51.9973 519.238 51.9353C520.769 51.8868 522.283 51.9218 523.768 51.903C529.703 51.8652 535.171 51.7064 539.447 51.259C511.276 48.9337 485.293 49.6503 459.703 52.3691C434.116 55.1552 408.836 60.0322 382.174 67.9756C417.734 57.3674 454.465 50.8225 491.563 48.454C485.775 48.8932 479.947 49.3324 474.084 49.7743C468.242 50.3994 462.376 51.1728 456.472 51.8841C450.555 52.4985 444.679 53.6005 438.753 54.6002C432.836 55.6268 426.865 56.5402 420.964 57.9521C397.18 62.7349 373.441 69.8187 350.088 78.5758C303.274 95.9069 258.578 121.798 219.351 153.785C205.1 165.587 190.313 175.101 175.558 187.892C171.88 191.09 168.078 194.353 164.367 197.947C160.749 201.628 157.092 205.519 153.42 209.685C149.663 213.778 146.212 218.418 142.736 223.365C139.3 228.344 135.655 233.482 132.578 239.408C153.15 213.387 176.56 189.395 202.252 168.022C228.006 146.717 256.034 128.058 285.666 112.394C315.297 96.7259 346.534 84.0536 378.712 74.5879C410.887 65.1033 444.021 58.8305 477.441 56.0498C477.207 56.1441 476.926 56.2303 476.778 56.3273C506.55 53.5412 535.198 53.7272 563.29 56.5645C591.389 59.3829 618.964 64.6507 646.726 72.4674C642.377 71.3762 638.049 70.1258 633.663 69.1881C629.279 68.2585 624.916 67.337 620.616 66.4263C612.069 64.3973 603.641 63.147 595.915 61.436C601.048 62.53 606.176 63.6214 611.298 64.71C616.388 65.936 621.435 67.3317 626.49 68.625L634.064 70.6027C636.586 71.2629 639.052 72.1198 641.547 72.8688C646.518 74.4155 651.487 75.9595 656.453 77.5034C676.082 84.3286 695.453 91.6899 714.007 100.76C732.753 109.401 750.642 119.732 768.11 130.598L780.947 139.172C783.067 140.633 785.266 141.972 787.314 143.529L793.514 148.123C797.628 151.211 801.813 154.202 805.857 157.376L817.775 167.165C794.632 149.657 769.797 133.91 743.585 120.335C717.351 106.787 689.746 95.5242 661.173 86.662C604.055 68.916 542.836 61.5842 482.34 66.2915C421.859 70.8884 362.235 87.438 308.604 114.529C254.929 141.525 207.361 179.083 169.966 223.225C193.312 200.507 220.564 174.478 250.322 152.928C254.089 150.314 257.842 147.711 261.571 145.125C263.441 143.837 265.306 142.554 267.162 141.274C269.078 140.086 270.986 138.903 272.883 137.725C276.701 135.397 280.481 133.091 284.219 130.814C287.956 128.537 291.847 126.638 295.589 124.614C299.364 122.652 303.059 120.68 306.766 118.907C310.517 117.226 314.214 115.612 317.843 114.081C321.492 112.594 324.986 110.996 328.559 109.837C332.113 108.633 335.584 107.517 338.963 106.499C314.788 116.724 291.405 128.914 269.167 143.055C246.983 157.279 225.931 173.382 206.299 191.214C186.67 209.043 168.463 228.605 151.959 249.69C135.412 270.753 120.894 293.543 108.168 317.43C109.852 313.773 111.515 310.157 113.169 306.563C114.81 302.955 116.702 299.503 118.415 295.946C99.8675 324.147 85.3272 356.255 74.9283 389.586C64.5335 422.965 58.5579 457.549 55.4091 491.152C54.8928 497.18 54.0931 503.134 53.9374 509.219C54.1214 503.226 54.9181 497.196 55.4091 491.152C61.4949 429.332 80.1061 370.209 108.168 317.43C96.7497 342.383 85.3353 369.14 75.0741 402.406C75.9729 400.221 76.8888 397.909 77.8206 395.487C78.2964 394.277 78.7354 393.029 79.2516 391.776C79.7814 390.531 80.3227 389.262 80.8726 387.969C83.0538 382.798 85.3075 377.253 87.611 371.462C90.1476 365.769 92.789 359.844 95.4846 353.795C96.1534 352.286 96.8259 350.766 97.5001 349.243C98.2451 347.751 98.9929 346.253 99.7419 344.752C101.243 341.755 102.751 338.743 104.26 335.731C119.305 303.777 137.975 273.463 160.024 246.316C126.763 289.005 102.8 337.644 89.941 384.415C91.5571 380.171 93.0531 375.876 94.7579 371.656C96.5444 367.469 98.3324 363.276 100.125 359.078L102.801 352.776C103.674 350.666 104.757 348.645 105.723 346.576C107.707 342.459 109.693 338.336 111.679 334.208C113.568 330.037 115.926 326.09 118.062 322.034C120.261 318.009 122.401 313.951 124.64 309.944L131.777 298.161L135.342 292.268C136.514 290.293 137.88 288.44 139.141 286.518L146.845 275.094L148.78 272.245L150.844 269.489L154.972 263.976C157.758 260.328 160.393 256.569 163.303 253.026L172.079 242.447C173.55 240.696 174.984 238.912 176.484 237.187L181.124 232.135C184.215 228.773 187.306 225.415 190.391 222.06C193.576 218.8 196.868 215.653 200.099 212.457C203.359 209.294 206.512 206.028 209.969 203.091C206.253 206.408 202.915 210.113 199.415 213.646L194.22 219.002L191.622 221.678L189.154 224.472L179.308 235.676L176.859 238.481L174.539 241.399L169.905 247.233C163.564 254.885 157.933 263.073 152.145 271.127C150.663 273.116 149.324 275.204 147.993 277.298L143.97 283.554C141.34 287.755 138.484 291.816 136.113 296.173C100.808 352.515 77.3908 417.379 70.1402 485.278C70.2191 482.68 70.5705 480.078 70.8141 477.494C70.079 482.635 69.837 487.824 69.4582 492.979C67.0838 519.541 67.1081 546.483 69.6455 573.337C70.3948 579.343 71.2107 585.314 72.0821 591.242C73.175 597.143 74.422 602.987 75.6545 608.802L76.6 613.153L77.7618 617.451L80.1222 626.009C80.9295 628.852 81.6874 631.697 82.5534 634.507L85.3897 642.866C86.4411 646.713 87.4838 650.531 88.5226 654.333C87.0826 650.844 85.8879 648.276 85.4632 648.354C85.2504 648.392 85.2313 649.095 85.4692 650.674C85.73 652.251 86.1291 654.74 87.1702 658.232C94.7843 688.443 107.826 718.549 124.454 747.717C128.407 755.132 133.157 762.167 137.579 769.467C139.742 773.147 142.294 776.602 144.673 780.185C147.079 783.753 149.496 787.334 151.921 790.928C162.123 804.95 172.564 819.164 184.048 832.952C185.538 834.77 187.12 836.651 188.782 838.586C190.445 840.521 192.156 842.539 194.104 844.449C197.919 848.345 202.039 852.425 206.388 856.647C210.82 860.778 215.692 864.833 220.623 869.098C221.863 870.155 223.113 871.222 224.371 872.294C225.681 873.302 227.001 874.318 228.329 875.342C230.989 877.373 233.681 879.432 236.399 881.509C241.659 886.839 245.173 888.698 248.417 890.18C250.842 891.843 253.286 893.516 255.738 895.197C258.195 896.868 260.609 898.611 263.177 900.12C269.296 904.016 275.308 908.112 281.535 911.787C287.843 915.331 294.107 918.885 300.469 922.061C294.328 918.6 288.077 915.077 281.78 911.529C275.529 907.894 269.415 903.909 263.177 900.12C260.86 898.684 258.675 897.073 256.468 895.502C254.258 893.936 252.054 892.376 249.861 890.821C251.602 891.581 253.404 892.333 255.581 893.481C256.67 894.052 257.853 894.726 259.168 895.545C260.472 896.38 261.94 897.321 263.627 898.401C243.233 884.101 223.835 868.018 205.798 850.302C187.747 832.601 171.06 813.25 156.23 792.421C126.44 750.861 103.4 703.939 88.5226 654.333C91.1624 660.013 94.5992 668.118 96.2054 671.414L90.513 657.268C89.5217 654.918 88.6872 652.515 87.8732 650.103L85.3897 642.866C76.6635 610.591 71.1792 577.357 69.6094 543.848C69.8901 548.841 70.7284 553.621 71.4225 558.164C72.1794 562.704 72.898 567.005 73.8656 570.979C69.8392 523.677 72.497 475.578 83.2481 429.044C84.5773 423.226 85.7815 417.374 87.5076 411.656C89.1504 405.917 90.6248 400.121 92.4056 394.422L98.0684 377.409C98.9495 374.548 100.119 371.794 101.185 369L104.438 360.639C105.544 357.86 106.56 355.039 107.741 352.294L111.41 344.097L115.082 335.898C115.702 334.537 116.281 333.152 116.941 331.807L118.979 327.806L127.154 311.785L136.113 296.173L138.306 292.57L140.675 289.078L145.412 282.107L150.148 275.145C151.73 272.83 153.5 270.645 155.166 268.39C158.577 263.938 161.856 259.396 165.367 255.038L176.137 242.175C190.889 225.386 206.62 209.547 223.525 195.121C240.514 180.802 258.416 167.691 277.092 155.862C295.923 144.268 315.491 134.012 335.624 125.088C313.438 133.573 291.453 144.405 270.296 157.457C267.669 159.125 265.039 160.79 262.404 162.464C259.769 164.14 257.107 165.791 254.587 167.653C249.489 171.293 244.327 174.904 239.239 178.649C234.295 182.586 229.332 186.531 224.36 190.489C219.475 194.558 214.779 198.877 209.969 203.091C234.524 179.587 261.784 158.85 291.057 141.422C320.373 124.059 351.805 110.282 384.322 100.105L390.411 98.1648C392.443 97.5316 394.521 97.0439 396.574 96.4781L408.925 93.1961L412.013 92.3798L415.136 91.7034L421.385 90.3696C425.55 89.4939 429.708 88.567 433.885 87.7452L446.495 85.7028C450.698 85.0372 454.891 84.2801 459.132 83.8975C467.598 83.0083 476.035 81.8496 484.541 81.5236C518.486 79.3653 552.647 81.1329 585.989 87.0338C579.808 87.05 573.088 87.0689 566.276 86.9854C562.875 86.8776 559.413 87.1147 555.991 87.2224C552.577 87.3625 549.179 87.5027 545.854 87.6401C544.197 87.7263 542.556 87.8098 540.942 87.8907C539.326 88.0604 537.736 88.2275 536.176 88.3918C533.061 88.7341 530.075 89.0952 527.276 89.4805C524.473 89.8685 521.857 90.2726 519.478 90.7307C517.096 91.2938 514.948 91.8785 513.089 92.4875C513.332 93.0507 516.169 93.444 519.893 93.8078C523.614 94.3251 528.222 94.8101 532.023 95.2413C539.627 96.1035 543.984 96.7529 531.692 97.0547C528.898 97.1597 526.128 97.2649 523.382 97.3672C522.011 97.4185 520.647 97.4669 519.289 97.5154C517.934 97.6232 516.584 97.731 515.239 97.8361C509.877 98.2188 504.612 98.5959 499.45 98.9624C494.309 99.5175 489.27 100.059 484.328 100.593C481.863 100.873 479.416 101.056 477.007 101.396C474.604 101.754 472.224 102.11 469.869 102.463C465.168 103.187 460.549 103.75 456.066 104.529C451.595 105.386 447.225 106.221 442.954 107.04C440.823 107.458 438.708 107.822 436.633 108.272C434.572 108.77 432.535 109.266 430.522 109.754C426.502 110.74 422.581 111.702 418.76 112.64C388.364 120.785 365.52 131.585 351.791 144.405C350.592 145.844 355.593 145.224 363.2 143.75C367.072 143.182 371.615 142.446 376.37 141.649C378.742 141.253 381.177 140.848 383.621 140.441C386.089 140.15 388.563 139.859 390.991 139.574C395.838 139.043 400.435 138.448 404.458 138.224C408.502 138.068 411.897 138.035 414.233 138.205C418.9 138.542 419.342 139.692 412.245 142.236C400.217 145.917 383.732 151.907 365.067 160.039C346.378 168.13 325.797 179.097 305.634 192.243C304.139 193.124 302.595 193.952 301.118 194.892C299.65 195.851 298.176 196.813 296.694 197.78C293.733 199.72 290.747 201.679 287.735 203.657C286.207 204.619 284.739 205.675 283.289 206.775C281.826 207.852 280.357 208.938 278.883 210.027C275.936 212.212 272.964 214.419 269.962 216.642C268.388 217.644 266.43 220.207 263.918 223.332C244.033 240.116 226.411 258.471 212.187 275.614C208.724 279.976 205.189 284.042 202.096 288.159C199.027 292.298 196.092 296.251 193.322 299.988C191.886 301.82 190.633 303.704 189.421 305.525C188.192 307.339 187.004 309.09 185.861 310.78C183.598 314.175 181.335 317.209 179.518 320.121C176.81 324.454 174.119 328.763 171.432 333.058C170.037 335.178 168.824 337.401 167.609 339.621L163.931 346.261C162.4 348.454 160.905 350.456 159.455 352.242C158.033 354.04 156.79 355.694 155.51 357.052C154.576 360.156 153.581 363.231 152.541 366.278C151.49 369.323 150.372 372.333 149.469 375.426C138.43 400.275 130.123 426.007 124.599 452.146C123.67 455.757 122.74 459.362 121.813 462.965L120.415 468.383L119.296 473.851C118.553 477.502 117.809 481.15 117.065 484.793L116.513 487.531L116.112 490.284L115.327 495.792C116.147 495.544 117.394 493.262 117.955 496.145C117.612 500.316 117.135 504.476 116.893 508.647L116.408 521.169C116.338 523.254 116.214 525.34 116.184 527.425L116.262 533.682L116.394 546.187C117.319 562.82 118.518 579.456 121.468 595.841C121.805 599.209 121.959 602.551 122.325 605.784C122.708 609.015 123.042 612.186 123.327 615.298C123.575 618.427 123.818 621.479 124.055 624.446C124.384 627.399 124.653 630.29 124.863 633.117C126.935 637.293 128.789 642.276 131.238 647.686C132.402 650.41 133.575 653.283 134.749 656.287C135.331 657.79 135.927 659.324 136.53 660.886C137.193 662.425 137.867 663.996 138.554 665.588C141.284 671.969 143.865 678.878 147.147 685.84C148.693 689.356 150.272 692.946 151.876 696.589C153.622 700.167 155.392 703.799 157.181 707.472C171.249 736.96 190.781 766.866 209.926 788.713L210.074 788.484C228.82 810.854 250.017 831.524 273.753 849.566C277.31 853.007 280.627 856.426 283.653 859.794C286.921 861.583 290.373 863.249 293.259 864.919C296.171 866.547 298.653 867.98 300.348 868.743C301.558 869.613 302.754 870.475 303.94 871.329C305.168 872.122 306.381 872.908 307.588 873.687C309.989 875.263 312.349 876.813 314.674 878.338C317.003 879.863 319.261 881.431 321.543 882.886C323.865 884.282 326.156 885.661 328.422 887.022C330.685 888.404 332.924 889.771 335.145 891.126C336.255 891.81 337.359 892.492 338.462 893.171C339.593 893.793 340.722 894.416 341.849 895.036C346.362 897.523 350.829 899.983 355.299 902.445C358.894 903.472 366.304 903.763 373.571 906.657C377.16 908.255 380.846 909.484 384.489 910.75C388.137 912.006 391.753 913.253 395.345 914.493C402.599 916.747 409.855 918.611 416.979 920.599C421.188 921.64 425.408 922.683 429.641 923.73L436 925.321C438.136 925.787 440.292 926.171 442.442 926.604C446.748 927.458 451.065 928.313 455.395 929.171C459.749 929.886 464.138 930.465 468.53 931.136C498.119 935.335 528.014 936.599 557.586 934.322C587.156 932.138 616.41 926.868 644.788 918.666C646.866 918.949 647.658 919.879 648.477 920.799C652.694 918.829 657.786 916.63 662.887 914.794C665.425 913.849 667.939 912.914 670.3 912.035C672.625 911.065 674.751 910.025 676.578 909.036C675.274 910.009 674.53 910.82 674.988 911.275C681.062 908.125 686.006 905.908 690.274 903.968C694.491 901.92 698.131 900.368 701.739 898.932C703.555 898.231 705.35 897.536 707.198 896.819C709.014 896.027 710.884 895.211 712.884 894.338C716.858 892.538 721.396 890.565 726.841 887.712C731.551 884.775 735.388 881.113 739.858 878.009C742.237 876.759 744.468 875.245 746.794 873.825C753.193 870.928 759.59 867.907 765.432 864.003C771.362 860.215 777.282 856.289 782.781 851.668C785.56 849.394 788.356 847.103 791.178 844.794C793.977 842.455 796.588 839.855 799.334 837.352C802.053 834.819 804.801 832.259 807.579 829.67C810.247 826.965 812.946 824.227 815.681 821.454C838.364 800.152 858.958 776.343 876.421 750.214C879.765 744.966 882.761 740.619 885.542 736.82C886.97 734.945 888.223 733.134 889.408 731.404C890.613 729.685 891.785 728.066 892.941 726.497C895.293 723.369 897.5 720.435 899.779 717.404C901.978 714.313 904.074 711.015 906.394 707.27Z" fill="#C1512D"/>
<path d="M169.99 737.791C183.565 762.583 199.678 785.998 218.082 807.567C215.503 804.762 212.957 801.992 210.44 799.255C207.926 796.515 205.649 793.626 203.273 790.872C200.934 788.086 198.59 785.351 196.332 782.584C194.208 779.712 192.104 776.866 190.013 774.04C187.979 771.173 185.847 768.403 184.026 765.439C182.202 762.478 180.434 759.503 178.731 756.504C175.201 750.59 172.461 744.239 169.99 737.791Z" fill="#C1512D"/>
<path d="M432.981 140.434C435.759 140.372 438.607 140.253 441.515 140.078C444.419 139.873 447.442 139.933 450.495 139.771C456.617 139.537 462.957 138.976 469.594 138.86C400.475 147.068 333.57 173.776 277.368 216.941L277.147 216.785C299.372 199.098 329.429 181.247 358.893 168.828C362.566 167.25 366.198 165.689 369.779 164.151C373.365 162.631 376.995 161.378 380.484 159.98C384.006 158.659 387.379 157.148 390.783 155.997C394.175 154.82 397.473 153.642 400.655 152.468C406.979 149.964 413.055 148.162 418.468 146.079C421.193 145.101 423.731 143.958 426.177 143.115C428.616 142.228 430.89 141.334 432.981 140.434Z" fill="#C1512D"/>
<path d="M138.704 667.583C139.351 668.529 140.065 669.749 140.8 671.029C140.822 671.11 140.844 671.175 140.881 671.274C140.14 670.283 139.415 669.024 138.704 667.583Z" fill="#C1512D"/>
<path d="M572.567 91.593C575.086 91.9406 577.546 92.2801 580.049 92.625L565.763 91.1646C563.389 90.8736 560.999 90.7308 558.606 90.6203L551.436 90.2242C541.89 89.4886 532.308 89.5829 522.737 89.459C538.02 88.8985 555.141 89.3754 572.567 91.593Z" fill="#C1512D"/>
<path d="M762.324 165.649C764.356 166.983 766.441 168.236 768.43 169.632L774.361 173.876C778.3 176.726 782.307 179.494 786.197 182.414L797.636 191.492C799.522 193.028 801.497 194.464 803.313 196.086L808.802 200.904C823.675 213.509 837.234 227.588 850.256 242.087C882.464 280.588 906.377 324.503 921.003 368.68C913.143 348.571 903.942 328.965 893.43 310.007C882.744 291.146 870.63 273.071 857.37 255.794C830.587 221.455 798.614 190.794 762.324 165.649Z" fill="#C1512D"/>
<path d="M567.642 137.276C571.188 137.993 574.755 138.602 578.293 139.44C581.809 140.348 585.336 141.261 588.872 142.177C595.961 143.829 602.894 146.257 609.864 148.38C602.778 146.672 595.756 144.715 588.597 143.516C585.032 142.827 581.475 142.134 577.918 141.444C574.348 140.83 570.751 140.418 567.173 139.887C569.989 139.458 567.833 138.111 567.642 137.276Z" fill="#C1512D"/>
<path d="M413.626 103.15C417.407 102.207 421.238 101.431 425.008 100.563C415.364 103.153 405.963 106.658 396.57 109.924C399.909 108.477 407.992 105.489 413.626 103.15Z" fill="#C1512D"/>
<path d="M711.606 191.476C707.154 188.541 702.442 186.073 697.802 183.5L690.842 179.647C688.549 178.313 686.097 177.292 683.736 176.098C689.74 178.167 695.455 180.681 701.482 182.772C702.738 184.082 704.252 185.448 705.979 186.854C707.723 188.237 709.542 189.902 711.606 191.476Z" fill="#C1512D"/>
<path d="M833.513 300.878C835.658 303.82 837.574 306.897 839.589 309.861C841.551 312.863 843.61 315.768 845.445 318.777C847.231 321.817 849.004 324.829 850.758 327.812C852.488 330.808 854.315 333.708 855.786 336.769C847.137 322.385 837.752 307.929 827.222 294.64C830.183 297.251 832.605 299.277 833.513 300.878Z" fill="#C1512D"/>
<path d="M752.086 874.523C752.086 875.391 751.948 876.274 751.663 877.145C750.218 881.558 745.465 883.965 741.049 882.518C737.506 881.356 735.256 878.064 735.256 874.526C735.256 873.658 735.391 872.774 735.676 871.907C737.123 867.49 741.874 865.084 746.29 866.531C749.836 867.692 752.086 870.985 752.086 874.523Z" fill="#D2775A"/>
<path d="M856.14 826.222C856.14 827.092 856.006 827.973 855.72 828.843C854.273 833.26 849.52 835.666 845.106 834.219C841.56 833.057 839.311 829.765 839.311 826.227C839.311 825.357 839.445 824.475 839.731 823.605C841.178 819.189 845.931 816.783 850.345 818.23C853.89 819.391 856.14 822.684 856.14 826.222Z" fill="#D2775A"/>
<path d="M781.408 941.326C781.382 941.752 781.301 942.181 781.161 942.606C780.277 945.302 777.375 946.771 774.68 945.888C774.26 945.75 773.869 945.563 773.514 945.336C776.16 944.021 778.789 942.684 781.408 941.326Z" fill="#D2775A"/>
<path d="M829.324 874.03C829.324 874.561 829.241 875.1 829.068 875.631C828.184 878.326 825.282 879.797 822.588 878.913C822.534 878.894 822.483 878.878 822.432 878.859C824.695 876.946 826.964 875.009 829.23 873.05C829.292 873.37 829.324 873.699 829.324 874.03Z" fill="#D2775A"/>
<path d="M862.395 874.621C860.922 875.758 859.44 876.895 857.888 877.94C857.537 878.183 857.187 878.425 856.837 878.668C856.513 878.234 856.295 877.727 856.201 877.191C856.659 876.892 857.117 876.593 857.578 876.294C857.087 876.612 856.632 876.911 856.201 877.191C856.168 877 856.152 876.806 856.152 876.612C856.152 876.256 856.206 875.895 856.322 875.539C856.915 873.734 858.858 872.751 860.66 873.343C861.39 873.581 861.983 874.041 862.395 874.621Z" fill="#D2775A"/>
<path d="M830.188 236.003C830.188 236.706 830.1 237.42 829.914 238.134C828.742 242.629 824.147 245.323 819.65 244.148C815.867 243.162 813.361 239.751 813.361 236.014C813.361 235.313 813.45 234.596 813.636 233.885C814.808 229.391 819.402 226.696 823.9 227.868C827.683 228.857 830.188 232.268 830.188 236.003Z" fill="#D2775A"/>
<path d="M858.12 251.986C858.12 252.69 858.031 253.404 857.848 254.115C856.673 258.609 852.079 261.304 847.582 260.132C843.799 259.143 841.293 255.732 841.293 251.997C841.293 251.294 841.382 250.58 841.568 249.868C842.74 245.371 847.334 242.68 851.831 243.852C855.614 244.838 858.12 248.249 858.12 251.986Z" fill="#D2775A"/>
<path d="M825.438 204.768C825.438 205.119 825.394 205.477 825.303 205.833C824.715 208.08 822.417 209.427 820.17 208.84C818.278 208.347 817.025 206.641 817.025 204.774C817.025 204.421 817.069 204.065 817.163 203.707C817.748 201.459 820.046 200.112 822.293 200.7C824.185 201.193 825.438 202.898 825.438 204.768Z" fill="#D2775A"/>
<path d="M818.217 187.634C818.217 188.063 818.164 188.499 818.05 188.933C817.334 191.679 814.529 193.322 811.783 192.608C809.474 192.005 807.943 189.922 807.943 187.64C807.943 187.211 807.997 186.775 808.11 186.341C808.827 183.595 811.632 181.952 814.378 182.668C816.687 183.269 818.217 185.352 818.217 187.634Z" fill="#D2775A"/>
<path d="M846.457 187.06C846.457 187.489 846.403 187.925 846.289 188.359C845.573 191.105 842.768 192.751 840.022 192.034C837.713 191.431 836.18 189.348 836.18 187.068C836.18 186.637 836.236 186.201 836.349 185.767C837.066 183.021 839.871 181.377 842.617 182.094C844.926 182.695 846.457 184.778 846.457 187.06Z" fill="#D2775A"/>
<path d="M800.658 203.642C800.658 203.93 800.623 204.221 800.547 204.512C800.067 206.35 798.189 207.452 796.352 206.972C794.805 206.568 793.781 205.175 793.781 203.648C793.781 203.362 793.819 203.068 793.894 202.777C794.374 200.939 796.252 199.84 798.087 200.32C799.634 200.724 800.658 202.117 800.658 203.642Z" fill="#D2775A"/>
<path d="M806.811 239.899C806.811 240.187 806.773 240.478 806.698 240.769C806.218 242.607 804.34 243.706 802.502 243.229C800.956 242.825 799.932 241.429 799.932 239.904C799.932 239.616 799.969 239.325 800.045 239.034C800.524 237.196 802.403 236.094 804.24 236.574C805.784 236.978 806.811 238.374 806.811 239.899Z" fill="#D2775A"/>
<path d="M809.344 213.242C809.344 213.458 809.314 213.676 809.257 213.892C808.902 215.266 807.498 216.088 806.126 215.729C804.97 215.427 804.205 214.387 804.205 213.245C804.205 213.032 804.232 212.814 804.289 212.596C804.647 211.224 806.048 210.402 807.422 210.758C808.576 211.06 809.344 212.102 809.344 213.242Z" fill="#D2775A"/>
<path d="M801.296 174.159C801.296 174.318 801.277 174.48 801.234 174.642C800.97 175.657 799.933 176.266 798.917 176C798.06 175.776 797.494 175.005 797.494 174.162C797.494 174.003 797.516 173.841 797.556 173.68C797.823 172.664 798.86 172.055 799.876 172.322C800.73 172.545 801.296 173.316 801.296 174.159Z" fill="#D2775A"/>
<path d="M783.388 181.359C783.388 181.517 783.369 181.676 783.326 181.838C783.062 182.854 782.024 183.463 781.009 183.199C780.152 182.975 779.586 182.205 779.586 181.359C779.586 181.2 779.607 181.041 779.648 180.879C779.912 179.863 780.952 179.254 781.968 179.518C782.822 179.742 783.388 180.512 783.388 181.359Z" fill="#D2775A"/>
<path d="M781.111 212.194C781.111 212.353 781.089 212.515 781.049 212.677C780.782 213.693 779.744 214.301 778.729 214.035C777.874 213.814 777.309 213.043 777.309 212.197C777.309 212.038 777.327 211.879 777.371 211.717C777.635 210.702 778.672 210.093 779.688 210.357C780.545 210.58 781.111 211.351 781.111 212.194Z" fill="#D2775A"/>
<path d="M932.781 680.248C932.781 681.174 932.627 682.118 932.301 683.042C930.76 687.423 925.956 689.727 921.572 688.183C918.115 686.968 915.951 683.718 915.951 680.248C915.951 679.321 916.105 678.38 916.431 677.456C917.972 673.075 922.776 670.771 927.158 672.312C930.617 673.53 932.781 676.78 932.781 680.248Z" fill="#D2775A"/>
<path d="M906.273 662.003C906.273 662.93 906.12 663.871 905.794 664.795C904.252 669.179 899.448 671.48 895.067 669.939C891.607 668.721 889.443 665.474 889.443 662.003C889.443 661.077 889.597 660.133 889.923 659.212C891.464 654.828 896.268 652.524 900.65 654.068C904.109 655.286 906.273 658.533 906.273 662.003Z" fill="#D2775A"/>
<path d="M926.522 711.426C926.522 711.889 926.444 712.361 926.283 712.821C925.509 715.012 923.108 716.165 920.918 715.392C919.188 714.786 918.107 713.161 918.107 711.426C918.107 710.962 918.183 710.491 918.345 710.03C919.118 707.839 921.519 706.686 923.709 707.457C925.439 708.066 926.522 709.69 926.522 711.426Z" fill="#D2775A"/>
<path d="M934.153 729.177C934.153 729.743 934.059 730.317 933.862 730.88C932.919 733.559 929.987 734.962 927.312 734.022C925.199 733.278 923.879 731.295 923.879 729.177C923.879 728.611 923.973 728.035 924.17 727.472C925.113 724.796 928.045 723.39 930.72 724.33C932.833 725.074 934.153 727.057 934.153 729.177Z" fill="#D2775A"/>
<path d="M905.966 727.404C905.966 727.97 905.872 728.544 905.673 729.109C904.732 731.785 901.798 733.189 899.122 732.249C897.01 731.505 895.689 729.522 895.689 727.404C895.689 726.838 895.784 726.261 895.983 725.698C896.924 723.023 899.858 721.616 902.533 722.559C904.646 723.3 905.966 725.286 905.966 727.404Z" fill="#D2775A"/>
<path d="M949.59 714.541C949.59 714.918 949.525 715.303 949.393 715.681C948.763 717.472 946.801 718.413 945.009 717.782C943.595 717.286 942.711 715.958 942.711 714.541C942.711 714.161 942.776 713.776 942.908 713.398C943.538 711.606 945.5 710.666 947.292 711.297C948.704 711.795 949.59 713.121 949.59 714.541Z" fill="#D2775A"/>
<path d="M946.471 677.898C946.471 678.275 946.406 678.661 946.274 679.038C945.644 680.83 943.679 681.77 941.89 681.14C940.476 680.644 939.592 679.315 939.592 677.898C939.592 677.518 939.654 677.136 939.788 676.756C940.419 674.967 942.381 674.026 944.172 674.654C945.584 675.152 946.471 676.481 946.471 677.898Z" fill="#D2775A"/>
<path d="M939.996 704.18C939.996 704.463 939.947 704.751 939.85 705.034C939.379 706.37 937.913 707.074 936.574 706.602C935.518 706.23 934.857 705.239 934.857 704.18C934.857 703.897 934.906 703.609 935.003 703.328C935.474 701.989 936.94 701.286 938.279 701.757C939.336 702.129 939.996 703.121 939.996 704.18Z" fill="#D2775A"/>
<path d="M943.435 743.744C943.435 743.951 943.4 744.164 943.328 744.374C942.977 745.363 941.892 745.883 940.903 745.535C940.121 745.261 939.631 744.528 939.631 743.744C939.631 743.533 939.666 743.321 939.741 743.11C940.089 742.121 941.175 741.601 942.164 741.949C942.945 742.224 943.435 742.96 943.435 743.744Z" fill="#D2775A"/>
<path d="M961.881 738.055C961.881 738.265 961.846 738.478 961.773 738.685C961.649 739.033 961.436 739.324 961.167 739.54C960.83 739.413 960.35 739.494 959.717 739.79C959.647 739.823 959.577 739.858 959.504 739.895C959.453 739.882 959.399 739.866 959.348 739.849C958.567 739.575 958.076 738.839 958.076 738.055C958.076 737.845 958.111 737.632 958.187 737.424C958.534 736.433 959.62 735.913 960.609 736.263C961.39 736.538 961.881 737.271 961.881 738.055Z" fill="#D2775A"/>
<path d="M966.708 707.513C966.708 707.724 966.676 707.936 966.6 708.144C966.253 709.135 965.167 709.655 964.178 709.308C963.397 709.03 962.906 708.297 962.906 707.513C962.906 707.303 962.941 707.09 963.014 706.883C963.364 705.891 964.448 705.371 965.439 705.722C966.221 705.996 966.708 706.729 966.708 707.513Z" fill="#D2775A"/>
<path d="M957.078 470.193C957.078 473.364 955.273 476.401 952.206 477.826C947.992 479.785 942.991 477.956 941.032 473.741C940.501 472.596 940.248 471.389 940.248 470.204C940.248 467.029 942.051 463.993 945.117 462.567C949.331 460.611 954.335 462.441 956.291 466.652C956.825 467.8 957.078 469.004 957.078 470.193Z" fill="#D2775A"/>
<path d="M988.793 464.734C988.793 467.908 986.987 470.944 983.921 472.37C979.71 474.326 974.706 472.496 972.747 468.285C972.216 467.137 971.963 465.933 971.963 464.744C971.963 461.573 973.765 458.534 976.832 457.111C981.046 455.152 986.05 456.982 988.006 461.196C988.539 462.341 988.793 463.548 988.793 464.734Z" fill="#D2775A"/>
<path d="M932.563 446.448C932.563 448.036 931.661 449.555 930.128 450.267C928.02 451.245 925.52 450.331 924.539 448.224C924.275 447.65 924.148 447.049 924.148 446.454C924.148 444.87 925.048 443.35 926.582 442.639C928.689 441.658 931.192 442.574 932.17 444.681C932.437 445.255 932.563 445.856 932.563 446.448Z" fill="#D2775A"/>
<path d="M916.298 438.427C916.298 440.364 915.198 442.218 913.325 443.088C910.752 444.285 907.699 443.166 906.503 440.596C906.177 439.895 906.023 439.157 906.023 438.435C906.023 436.498 907.125 434.641 908.998 433.771C911.569 432.577 914.624 433.693 915.821 436.266C916.144 436.966 916.298 437.702 916.298 438.427Z" fill="#D2775A"/>
<path d="M937.71 420.007C937.71 421.944 936.608 423.798 934.736 424.669C932.162 425.862 929.11 424.747 927.913 422.174C927.587 421.473 927.434 420.737 927.434 420.013C927.434 418.075 928.536 416.221 930.408 415.351C932.979 414.157 936.034 415.273 937.231 417.846C937.554 418.547 937.71 419.282 937.71 420.007Z" fill="#D2775A"/>
<path d="M912.56 460.872C912.56 462.169 911.824 463.408 910.571 463.99C908.85 464.79 906.804 464.044 906.004 462.322C905.786 461.853 905.684 461.36 905.684 460.875C905.684 459.579 906.422 458.337 907.675 457.755C909.397 456.955 911.442 457.704 912.239 459.426C912.458 459.894 912.56 460.387 912.56 460.872Z" fill="#D2775A"/>
<path d="M940.389 484.913C940.389 486.212 939.65 487.451 938.398 488.033C936.676 488.833 934.631 488.087 933.83 486.365C933.615 485.896 933.51 485.403 933.51 484.918C933.51 483.622 934.248 482.38 935.501 481.798C937.223 480.998 939.268 481.744 940.065 483.466C940.284 483.935 940.389 484.428 940.389 484.913Z" fill="#D2775A"/>
<path d="M925.17 462.19C925.17 463.16 924.62 464.087 923.682 464.52C922.397 465.119 920.869 464.561 920.271 463.273C920.109 462.925 920.031 462.556 920.031 462.195C920.031 461.225 920.584 460.298 921.519 459.862C922.807 459.266 924.332 459.824 924.93 461.109C925.091 461.459 925.17 461.829 925.17 462.19Z" fill="#D2775A"/>
<path d="M893.931 436.748C893.931 437.465 893.524 438.152 892.831 438.473C891.878 438.915 890.749 438.502 890.304 437.551C890.185 437.293 890.129 437.02 890.129 436.751C890.129 436.034 890.536 435.347 891.228 435.027C892.179 434.585 893.311 434.997 893.753 435.948C893.874 436.209 893.931 436.482 893.931 436.748Z" fill="#D2775A"/>
<path d="M884.705 453.7C884.705 454.419 884.295 455.104 883.603 455.427C882.652 455.869 881.52 455.457 881.078 454.503C880.957 454.244 880.9 453.972 880.9 453.702C880.9 452.986 881.307 452.301 882.002 451.978C882.954 451.536 884.085 451.948 884.527 452.902C884.646 453.161 884.705 453.433 884.705 453.7Z" fill="#D2775A"/>
<path d="M902.579 478.931C902.579 479.65 902.172 480.335 901.48 480.658C900.526 481.1 899.397 480.685 898.955 479.734C898.834 479.475 898.777 479.203 898.777 478.933C898.777 478.217 899.184 477.532 899.877 477.209C900.828 476.767 901.96 477.179 902.401 478.133C902.523 478.392 902.579 478.664 902.579 478.931Z" fill="#D2775A"/>
<path d="M615.375 93.2596C609.867 92.5132 604.338 91.88 598.801 91.3519C599.811 87.2913 603.716 84.5267 607.978 85.044C612.203 85.5587 615.313 89.1208 615.375 93.2596ZM615.019 95.822C614.558 97.3579 613.68 98.689 612.527 99.7048C608.458 99.2764 604.416 98.9396 600.42 98.6836C599.811 97.9291 599.332 97.0723 599.011 96.148C599.981 96.1076 600.951 96.0699 601.921 96.0295C605.343 95.9217 608.805 95.6846 612.206 95.7924C613.144 95.8059 614.084 95.8139 615.019 95.822Z" fill="#D2775A"/>
<path d="M612.153 100.017C610.459 101.346 608.257 102.027 605.951 101.747C603.949 101.502 602.194 100.575 600.898 99.2251L604.539 99.4272C606.931 99.5376 609.321 99.6804 611.695 99.9715L612.153 100.017Z" fill="#D2775A"/>
<path d="M598.311 144.862C598.311 145.069 598.3 145.277 598.274 145.487C597.931 148.302 595.372 150.31 592.556 149.968C589.95 149.65 588.037 147.435 588.037 144.875C588.037 144.668 588.051 144.46 588.078 144.247C588.417 141.431 590.98 139.427 593.795 139.769C596.401 140.084 598.311 142.302 598.311 144.862Z" fill="#D2775A"/>
<path d="M631.845 140.505C631.845 140.645 631.834 140.783 631.818 140.925C631.589 142.809 629.875 144.151 627.992 143.922C626.249 143.711 624.969 142.227 624.969 140.513C624.969 140.376 624.977 140.236 624.993 140.095C625.222 138.209 626.936 136.867 628.819 137.096C630.565 137.309 631.845 138.791 631.845 140.505Z" fill="#D2775A"/>
<path d="M619.083 120.193C619.083 120.333 619.075 120.471 619.059 120.614C618.83 122.497 617.116 123.839 615.233 123.61C613.487 123.4 612.207 121.915 612.207 120.201C612.207 120.064 612.215 119.924 612.234 119.784C612.463 117.898 614.177 116.556 616.06 116.785C617.804 116.998 619.083 118.48 619.083 120.193Z" fill="#D2775A"/>
<path d="M651.999 124.297C651.999 124.402 651.994 124.504 651.98 124.609C651.81 126.019 650.53 127.021 649.121 126.851C647.82 126.692 646.863 125.585 646.863 124.305C646.863 124.2 646.869 124.097 646.882 123.992C647.052 122.583 648.332 121.581 649.741 121.75C651.045 121.909 651.999 123.017 651.999 124.297Z" fill="#D2775A"/>
<path d="M648.539 168.613C648.539 168.689 648.534 168.767 648.523 168.842C648.396 169.885 647.45 170.629 646.408 170.502C645.443 170.384 644.734 169.565 644.734 168.616C644.734 168.541 644.74 168.463 644.751 168.384C644.877 167.344 645.823 166.601 646.866 166.727C647.83 166.846 648.539 167.665 648.539 168.613Z" fill="#D2775A"/>
<path d="M630.851 164.547C630.851 164.625 630.845 164.704 630.835 164.782C630.708 165.822 629.762 166.565 628.719 166.439C627.755 166.32 627.049 165.501 627.049 164.553C627.049 164.477 627.052 164.399 627.062 164.321C627.189 163.281 628.135 162.537 629.177 162.664C630.142 162.782 630.851 163.602 630.851 164.547Z" fill="#D2775A"/>
<path d="M701.284 128.858C701.284 133.439 698.062 137.535 693.397 138.467C688.084 139.531 682.916 136.085 681.851 130.774C681.722 130.125 681.66 129.475 681.66 128.837C681.66 124.256 684.883 120.161 689.547 119.228C694.861 118.164 700.029 121.61 701.093 126.924C701.222 127.573 701.284 128.22 701.284 128.858Z" fill="#D2775A"/>
<path d="M721.463 165.615C721.463 168.412 719.496 170.912 716.648 171.484C713.404 172.133 710.246 170.029 709.599 166.784C709.518 166.388 709.48 165.992 709.48 165.602C709.48 162.805 711.447 160.304 714.296 159.736C717.54 159.086 720.698 161.188 721.347 164.432C721.425 164.831 721.463 165.224 721.463 165.615Z" fill="#D2775A"/>
<path d="M796.74 115.098C796.74 117.895 794.773 120.399 791.925 120.967C788.681 121.616 785.526 119.512 784.876 116.268C784.796 115.872 784.758 115.476 784.758 115.088C784.758 113.355 785.512 111.736 786.765 110.618C787.436 110.852 788.069 111.059 788.665 111.243C792.946 112.609 795.291 112.905 796.096 112.39C796.336 112.862 796.514 113.374 796.624 113.918C796.703 114.314 796.74 114.71 796.74 115.098Z" fill="#D2775A"/>
<path d="M734.684 121.409C734.684 124.206 732.715 126.706 729.867 127.275C726.622 127.924 723.467 125.82 722.818 122.576C722.74 122.179 722.699 121.783 722.699 121.395C722.699 118.598 724.669 116.098 727.517 115.527C727.53 115.524 727.544 115.521 727.56 115.519C729.6 116.349 731.631 117.192 733.66 118.051C734.092 118.69 734.404 119.423 734.566 120.226C734.644 120.622 734.684 121.018 734.684 121.409Z" fill="#D2775A"/>
<path d="M786.641 172.2C786.641 174.997 784.672 177.497 781.824 178.066C778.579 178.715 775.424 176.613 774.775 173.369C774.697 172.97 774.656 172.577 774.656 172.186C774.656 169.389 776.626 166.889 779.474 166.318C782.718 165.671 785.873 167.773 786.523 171.017C786.601 171.413 786.641 171.809 786.641 172.2Z" fill="#D2775A"/>
<path d="M738.773 151.746C738.773 153.618 737.455 155.292 735.55 155.674C733.378 156.108 731.266 154.699 730.832 152.53C730.778 152.263 730.754 151.999 730.754 151.738C730.754 149.865 732.072 148.192 733.977 147.812C736.148 147.375 738.261 148.784 738.695 150.956C738.749 151.22 738.773 151.487 738.773 151.746Z" fill="#D2775A"/>
<path d="M778.594 131.694C778.594 133.092 777.608 134.342 776.185 134.628C774.563 134.951 772.984 133.9 772.661 132.278C772.62 132.079 772.602 131.882 772.602 131.685C772.602 130.287 773.585 129.037 775.01 128.754C776.633 128.428 778.209 129.479 778.535 131.101C778.573 131.3 778.594 131.497 778.594 131.694Z" fill="#D2775A"/>
<path d="M815.713 146.152C815.713 147.551 814.727 148.801 813.304 149.087C811.682 149.41 810.103 148.359 809.78 146.737C809.74 146.54 809.721 146.341 809.721 146.147C809.721 144.749 810.704 143.498 812.13 143.213C813.752 142.889 815.328 143.94 815.654 145.562C815.692 145.762 815.713 145.958 815.713 146.152Z" fill="#D2775A"/>
<path d="M753.83 138.753C753.83 139.788 753.099 140.712 752.046 140.925C750.847 141.165 749.677 140.386 749.438 139.184C749.408 139.039 749.395 138.893 749.395 138.748C749.395 137.713 750.122 136.786 751.176 136.576C752.377 136.336 753.544 137.115 753.787 138.317C753.816 138.462 753.83 138.608 753.83 138.753Z" fill="#D2775A"/>
<path d="M561.318 100.985C561.318 101.155 561.307 101.324 561.286 101.497C561.264 101.683 561.229 101.866 561.183 102.041C559.938 101.825 559.143 101.583 559.02 101.295C559.739 101.06 560.499 100.828 561.299 100.599C561.31 100.726 561.318 100.855 561.318 100.985Z" fill="#D2775A"/>
<path d="M826.869 748.649C826.869 749.517 826.734 750.401 826.449 751.271C825.002 755.688 820.249 758.094 815.835 756.647C812.289 755.485 810.039 752.19 810.039 748.652C810.039 747.785 810.174 746.903 810.459 746.033C811.906 741.617 816.659 739.211 821.073 740.658C824.619 741.819 826.869 745.112 826.869 748.649Z" fill="#C1512D"/>
<path d="M865.922 527.194C865.922 528.064 865.787 528.945 865.501 529.815C864.054 534.229 859.301 536.638 854.888 535.191C851.342 534.03 849.092 530.734 849.092 527.196C849.092 526.329 849.227 525.448 849.512 524.577C850.959 520.161 855.709 517.755 860.126 519.202C863.672 520.363 865.922 523.656 865.922 527.194Z" fill="#C1512D"/>
<path d="M755.622 815.168C755.622 815.602 755.555 816.044 755.412 816.478C754.687 818.685 752.313 819.889 750.104 819.164C748.333 818.585 747.207 816.939 747.207 815.168C747.207 814.734 747.274 814.292 747.417 813.859C748.142 811.652 750.516 810.447 752.725 811.17C754.498 811.752 755.622 813.398 755.622 815.168Z" fill="#C1512D"/>
<path d="M826.009 786.216C826.009 786.744 825.926 787.283 825.753 787.814C824.869 790.511 821.968 791.979 819.27 791.095C817.107 790.387 815.732 788.377 815.732 786.216C815.732 785.688 815.816 785.149 815.991 784.615C816.872 781.921 819.774 780.452 822.471 781.333C824.635 782.045 826.009 784.055 826.009 786.216Z" fill="#C1512D"/>
<path d="M903.511 780.242C903.511 780.773 903.428 781.312 903.253 781.843C902.371 784.54 899.469 786.009 896.772 785.125C894.609 784.416 893.234 782.406 893.234 780.245C893.234 779.714 893.318 779.175 893.49 778.645C894.374 775.95 897.276 774.479 899.971 775.363C902.137 776.071 903.511 778.084 903.511 780.242Z" fill="#C1512D"/>
<path d="M932.546 541.249C932.546 541.777 932.463 542.316 932.29 542.849C931.407 545.544 928.505 547.012 925.81 546.129C923.644 545.42 922.27 543.41 922.27 541.249C922.27 540.721 922.353 540.182 922.528 539.648C923.412 536.954 926.311 535.485 929.008 536.369C931.172 537.078 932.546 539.088 932.546 541.249Z" fill="#C1512D"/>
<path d="M901.326 539.868C901.326 540.399 901.242 540.938 901.067 541.469C900.183 544.166 897.284 545.635 894.587 544.751C892.423 544.042 891.049 542.032 891.049 539.871C891.049 539.34 891.132 538.801 891.305 538.27C892.189 535.573 895.091 534.105 897.785 534.989C899.951 535.697 901.326 537.707 901.326 539.868Z" fill="#C1512D"/>
<path d="M883.98 515.055C883.98 515.586 883.896 516.125 883.724 516.656C882.84 519.35 879.938 520.821 877.241 519.938C875.077 519.229 873.703 517.216 873.703 515.058C873.703 514.527 873.787 513.988 873.962 513.457C874.843 510.76 877.745 509.292 880.442 510.175C882.606 510.884 883.98 512.894 883.98 515.055Z" fill="#C1512D"/>
<path d="M787.766 819.988C787.766 820.519 787.685 821.058 787.51 821.589C786.627 824.286 783.725 825.755 781.03 824.871C778.866 824.162 777.492 822.152 777.492 819.991C777.492 819.46 777.573 818.921 777.748 818.391C778.632 815.696 781.531 814.225 784.228 815.109C786.392 815.817 787.766 817.83 787.766 819.988Z" fill="#C1512D"/>
<path d="M854.518 758.786C854.518 759.314 854.435 759.853 854.262 760.387C853.378 763.081 850.476 764.55 847.782 763.666C845.616 762.957 844.244 760.947 844.244 758.786C844.244 758.258 844.325 757.719 844.5 757.186C845.384 754.491 848.283 753.022 850.98 753.904C853.144 754.615 854.518 756.625 854.518 758.786Z" fill="#C1512D"/>
<path d="M964.488 536.03C964.488 536.56 964.404 537.099 964.229 537.63C963.345 540.327 960.446 541.796 957.749 540.912C955.585 540.203 954.211 538.193 954.211 536.032C954.211 535.501 954.294 534.962 954.467 534.432C955.351 531.734 958.253 530.266 960.947 531.15C963.114 531.858 964.488 533.869 964.488 536.03Z" fill="#C1512D"/>
<path d="M900.74 494.437C900.74 494.965 900.656 495.504 900.484 496.037C899.6 498.732 896.698 500.201 894.003 499.319C891.837 498.608 890.463 496.598 890.463 494.437C890.463 493.909 890.546 493.37 890.722 492.839C891.605 490.142 894.505 488.673 897.202 489.557C899.366 490.266 900.74 492.276 900.74 494.437Z" fill="#C1512D"/>
<path d="M871.89 818.615C871.89 819.146 871.807 819.684 871.634 820.215C870.75 822.91 867.848 824.378 865.154 823.497C862.987 822.786 861.613 820.776 861.613 818.617C861.613 818.087 861.697 817.548 861.872 817.017C862.756 814.32 865.655 812.851 868.352 813.735C870.516 814.444 871.89 816.454 871.89 818.615Z" fill="#C1512D"/>
<path d="M636.687 920.035C636.687 920.336 636.66 920.639 636.606 920.943C633.594 921.748 630.579 922.521 627.55 923.261C626.822 922.357 626.41 921.219 626.41 920.037C626.41 919.507 626.494 918.968 626.666 918.437C627.55 915.74 630.452 914.272 633.149 915.155C635.313 915.864 636.687 917.875 636.687 920.035Z" fill="#C1512D"/>
<path d="M808.536 845.398C808.536 845.753 808.479 846.112 808.363 846.467C807.773 848.273 805.83 849.256 804.025 848.663C803.26 848.413 802.643 847.92 802.23 847.297C803.882 845.764 805.531 844.215 807.175 842.66C808.029 843.307 808.536 844.325 808.536 845.398Z" fill="#C1512D"/>
<path d="M844.558 783.998C844.558 784.354 844.504 784.712 844.388 785.068C843.795 786.873 841.855 787.857 840.05 787.264C838.6 786.79 837.682 785.445 837.682 783.998C837.682 783.645 837.738 783.284 837.854 782.929C838.444 781.123 840.387 780.14 842.19 780.732C843.639 781.207 844.558 782.551 844.558 783.998Z" fill="#C1512D"/>
<path d="M960.066 493.99C960.066 494.346 960.012 494.707 959.893 495.062C959.303 496.865 957.361 497.848 955.558 497.258C954.108 496.781 953.189 495.437 953.189 493.99C953.189 493.637 953.243 493.276 953.362 492.92C953.952 491.115 955.895 490.131 957.697 490.724C959.147 491.198 960.066 492.543 960.066 493.99Z" fill="#C1512D"/>
<path d="M970.462 554.231C970.462 554.584 970.408 554.945 970.293 555.3C969.7 557.106 967.757 558.089 965.954 557.496C964.505 557.022 963.586 555.675 963.586 554.231C963.586 553.875 963.64 553.514 963.758 553.161C964.349 551.356 966.291 550.372 968.094 550.962C969.543 551.436 970.462 552.784 970.462 554.231Z" fill="#C1512D"/>
<path d="M731.504 773.17C731.504 773.525 731.447 773.886 731.332 774.242C730.739 776.045 728.799 777.028 726.993 776.438C725.544 775.964 724.625 774.617 724.625 773.172C724.625 772.817 724.682 772.456 724.797 772.1C725.388 770.297 727.33 769.314 729.136 769.904C730.583 770.378 731.504 771.725 731.504 773.17Z" fill="#C1512D"/>
<path d="M839.761 854.901C838.398 855.949 837.059 856.96 835.736 857.919C835.525 857.736 835.35 857.517 835.213 857.278C836.172 856.027 837.118 854.766 838.058 853.503C838.118 853.519 838.177 853.535 838.236 853.554C838.937 853.783 839.47 854.284 839.761 854.901Z" fill="#C1512D"/>
<path d="M973.125 510.075C973.125 510.339 973.082 510.609 972.995 510.873C972.553 512.223 971.104 512.956 969.754 512.514C968.673 512.161 967.986 511.156 967.986 510.075C967.986 509.809 968.027 509.539 968.116 509.275C968.558 507.928 970.007 507.192 971.354 507.634C972.438 507.99 973.125 508.995 973.125 510.075Z" fill="#C1512D"/>
<path d="M919.492 421.125C919.492 421.392 919.449 421.662 919.363 421.926C918.921 423.276 917.471 424.009 916.121 423.567C915.041 423.214 914.354 422.209 914.354 421.128C914.354 420.861 914.394 420.592 914.483 420.328C914.925 418.981 916.374 418.245 917.722 418.687C918.805 419.04 919.492 420.048 919.492 421.125Z" fill="#C1512D"/>
<path d="M945.529 418.034C945.529 418.298 945.489 418.568 945.4 418.832C944.958 420.182 943.508 420.915 942.161 420.473C941.078 420.12 940.391 419.115 940.391 418.034C940.391 417.768 940.431 417.498 940.52 417.234C940.962 415.887 942.411 415.151 943.759 415.593C944.842 415.946 945.529 416.954 945.529 418.034Z" fill="#C1512D"/>
<path d="M904.246 812.692C904.246 812.959 904.205 813.228 904.117 813.495C903.675 814.842 902.225 815.575 900.878 815.133C899.795 814.78 899.107 813.775 899.107 812.695C899.107 812.428 899.151 812.158 899.237 811.894C899.679 810.547 901.128 809.811 902.476 810.253C903.559 810.609 904.246 811.614 904.246 812.692Z" fill="#C1512D"/>
<path d="M926.06 521.579C926.06 521.843 926.017 522.112 925.931 522.379C925.489 523.726 924.037 524.462 922.689 524.02C921.609 523.664 920.922 522.659 920.922 521.579C920.922 521.315 920.962 521.045 921.049 520.779C921.49 519.431 922.943 518.696 924.29 519.138C925.373 519.493 926.06 520.498 926.06 521.579Z" fill="#C1512D"/>
<path d="M953.838 506.457C953.838 506.721 953.797 506.993 953.708 507.257C953.266 508.604 951.817 509.34 950.469 508.898C949.386 508.542 948.699 507.537 948.699 506.459C948.699 506.193 948.742 505.923 948.829 505.656C949.27 504.309 950.72 503.576 952.067 504.018C953.151 504.371 953.838 505.376 953.838 506.457Z" fill="#C1512D"/>
<path d="M974.456 437.16C973.774 436.681 973.367 435.891 973.367 435.061C973.367 434.794 973.408 434.525 973.497 434.261C973.564 434.051 973.658 433.854 973.771 433.676C974.003 434.835 974.232 435.999 974.456 437.16Z" fill="#C1512D"/>
<path d="M980.716 536.784C980.716 537.05 980.676 537.32 980.587 537.584C980.145 538.934 978.696 539.667 977.348 539.225C976.265 538.872 975.578 537.867 975.578 536.786C975.578 536.52 975.619 536.25 975.707 535.986C976.149 534.639 977.599 533.903 978.946 534.345C980.029 534.698 980.716 535.703 980.716 536.784Z" fill="#C1512D"/>
<path d="M745.079 946.491C745.079 946.687 745.05 946.886 744.985 947.083C744.656 948.081 743.584 948.624 742.587 948.298C741.784 948.035 741.277 947.291 741.277 946.491C741.277 946.295 741.307 946.096 741.372 945.899C741.698 944.902 742.773 944.358 743.77 944.685C744.57 944.948 745.079 945.691 745.079 946.491Z" fill="#C1512D"/>
<path d="M827.976 898.919C827.976 899.116 827.946 899.315 827.881 899.512C827.555 900.509 826.48 901.053 825.483 900.724C824.683 900.463 824.174 899.719 824.174 898.919C824.174 898.722 824.203 898.523 824.268 898.326C824.597 897.329 825.669 896.785 826.666 897.114C827.469 897.375 827.976 898.119 827.976 898.919Z" fill="#C1512D"/>
<path d="M763.394 940.406C763.394 940.602 763.364 940.802 763.299 940.998C762.973 941.996 761.898 942.539 760.901 942.213C760.101 941.95 759.592 941.206 759.592 940.407C759.592 940.21 759.621 940.011 759.686 939.814C760.015 938.816 761.087 938.273 762.084 938.6C762.887 938.862 763.394 939.606 763.394 940.406Z" fill="#C1512D"/>
<path d="M899.641 607.638C899.641 610.036 898.62 612.421 896.639 614.083C893.082 617.072 887.774 616.611 884.786 613.051C883.463 611.475 882.816 609.557 882.816 607.646C882.816 605.248 883.838 602.864 885.818 601.201C889.378 598.213 894.683 598.674 897.671 602.233C898.994 603.809 899.641 605.728 899.641 607.638Z" fill="#C1512D"/>
<path d="M873.225 589.262C873.225 591.662 872.204 594.044 870.223 595.71C866.664 598.695 861.358 598.234 858.37 594.677C857.047 593.099 856.4 591.18 856.4 589.27C856.4 586.872 857.422 584.487 859.402 582.824C862.959 579.836 868.267 580.297 871.255 583.856C872.578 585.433 873.225 587.351 873.225 589.262Z" fill="#C1512D"/>
<path d="M923.889 594.732C923.889 595.931 923.377 597.122 922.388 597.954C920.61 599.447 917.956 599.218 916.46 597.44C915.8 596.65 915.477 595.691 915.477 594.734C915.477 593.535 915.986 592.344 916.977 591.512C918.756 590.019 921.41 590.248 922.903 592.029C923.565 592.816 923.889 593.775 923.889 594.732Z" fill="#C1512D"/>
<path d="M943.794 594.745C943.794 596.211 943.168 597.666 941.959 598.682C939.787 600.506 936.548 600.226 934.724 598.052C933.916 597.09 933.52 595.918 933.52 594.754C933.52 593.288 934.145 591.833 935.354 590.817C937.526 588.993 940.765 589.273 942.589 591.447C943.397 592.409 943.794 593.581 943.794 594.745Z" fill="#C1512D"/>
<path d="M932.198 568.99C932.198 570.456 931.575 571.911 930.366 572.927C928.191 574.751 924.952 574.468 923.128 572.297C922.32 571.335 921.924 570.163 921.924 568.996C921.924 567.53 922.549 566.075 923.759 565.059C925.93 563.235 929.169 563.518 930.993 565.69C931.802 566.652 932.198 567.826 932.198 568.99Z" fill="#C1512D"/>
<path d="M934.435 615.94C934.435 616.921 934.017 617.896 933.209 618.575C931.754 619.796 929.585 619.607 928.364 618.152C927.823 617.508 927.559 616.724 927.559 615.945C927.559 614.964 927.976 613.989 928.787 613.31C930.24 612.089 932.409 612.278 933.629 613.73C934.171 614.374 934.435 615.161 934.435 615.94Z" fill="#C1512D"/>
<path d="M899.046 625.934C899.046 626.914 898.629 627.89 897.82 628.569C896.365 629.789 894.196 629.601 892.976 628.149C892.434 627.505 892.17 626.718 892.17 625.939C892.17 624.958 892.588 623.983 893.396 623.304C894.851 622.083 897.02 622.272 898.241 623.727C898.782 624.371 899.046 625.155 899.046 625.934Z" fill="#C1512D"/>
<path d="M920.799 611.427C920.796 612.159 920.486 612.887 919.88 613.396C918.794 614.307 917.174 614.167 916.261 613.081C915.857 612.599 915.66 612.014 915.66 611.429C915.66 610.696 915.973 609.969 916.576 609.462C917.662 608.549 919.284 608.692 920.195 609.778C920.599 610.257 920.799 610.845 920.799 611.427Z" fill="#C1512D"/>
<path d="M958.599 601.328C958.599 601.87 958.37 602.409 957.923 602.786C957.117 603.459 955.918 603.357 955.244 602.551C954.945 602.196 954.797 601.762 954.797 601.331C954.797 600.789 955.029 600.25 955.476 599.873C956.282 599.199 957.481 599.304 958.154 600.107C958.453 600.463 958.599 600.897 958.599 601.328Z" fill="#C1512D"/>
<path d="M959.78 620.593C959.78 621.135 959.549 621.674 959.101 622.048C958.298 622.724 957.099 622.619 956.423 621.816C956.124 621.461 955.979 621.027 955.979 620.596C955.979 620.051 956.21 619.515 956.658 619.138C957.46 618.462 958.66 618.567 959.336 619.37C959.635 619.728 959.78 620.162 959.78 620.593Z" fill="#C1512D"/>
<path d="M932.9 635.879C932.9 636.421 932.668 636.96 932.221 637.334C931.418 638.011 930.219 637.905 929.542 637.103C929.243 636.744 929.098 636.313 929.098 635.879C929.098 635.338 929.329 634.799 929.777 634.424C930.58 633.748 931.779 633.853 932.455 634.656C932.754 635.014 932.9 635.448 932.9 635.879Z" fill="#C1512D"/>
<path d="M856.715 247.349C856.715 248.119 856.607 248.885 856.402 249.623C854.386 247.087 852.341 244.576 850.256 242.086C849.326 241.049 848.391 240.014 847.454 238.982C850.824 238.643 854.209 240.373 855.817 243.579C856.426 244.792 856.715 246.08 856.715 247.349ZM854.866 252.617C854.133 253.533 853.193 254.311 852.075 254.872C847.922 256.957 842.868 255.281 840.782 251.129C840.173 249.917 839.885 248.629 839.885 247.36C839.885 244.328 841.528 241.41 844.382 239.909C847.96 244.083 851.452 248.319 854.866 252.617Z" fill="#C1512D"/>
<path d="M850.294 215.815C850.294 218.895 848.596 221.862 845.654 223.339C845.158 223.589 844.646 223.786 844.132 223.929C840.788 220.278 837.376 216.691 833.898 213.167C834.577 211.127 836.032 209.343 838.104 208.303C842.256 206.218 847.314 207.894 849.397 212.046C850.006 213.258 850.294 214.546 850.294 215.815ZM843.609 224.055C839.961 224.823 836.113 223.083 834.361 219.596C833.755 218.386 833.467 217.095 833.467 215.826C833.467 215.061 833.572 214.301 833.774 213.568C837.118 217.015 840.397 220.512 843.609 224.055Z" fill="#C1512D"/>
<path d="M829.391 268.371C829.391 269.912 828.542 271.394 827.071 272.133C824.996 273.175 822.469 272.337 821.426 270.263C821.121 269.656 820.979 269.012 820.979 268.377C820.979 266.838 821.827 265.353 823.296 264.615C825.373 263.572 827.901 264.41 828.943 266.488C829.248 267.091 829.391 267.738 829.391 268.371Z" fill="#C1512D"/>
<path d="M822.827 285.802C822.827 287.683 821.79 289.493 819.995 290.396C817.459 291.668 814.372 290.644 813.1 288.111C812.728 287.37 812.553 286.583 812.553 285.81C812.553 283.929 813.59 282.116 815.385 281.216C817.92 279.941 821.005 280.965 822.28 283.501C822.652 284.239 822.827 285.026 822.827 285.802Z" fill="#C1512D"/>
<path d="M803.762 264.96C803.762 266.841 802.725 268.654 800.931 269.554C798.395 270.829 795.307 269.805 794.035 267.269C793.663 266.531 793.488 265.744 793.488 264.968C793.488 263.088 794.526 261.277 796.32 260.374C798.856 259.102 801.944 260.126 803.215 262.659C803.587 263.4 803.762 264.187 803.762 264.96Z" fill="#C1512D"/>
<path d="M843.623 287.157C843.623 288.415 842.928 289.628 841.726 290.232C840.029 291.083 837.962 290.399 837.111 288.704C836.863 288.208 836.744 287.68 836.744 287.163C836.744 285.904 837.439 284.692 838.641 284.088C840.339 283.237 842.405 283.921 843.257 285.616C843.505 286.112 843.623 286.64 843.623 287.157Z" fill="#C1512D"/>
<path d="M866.806 258.611C866.806 259.692 866.297 260.737 865.394 261.392C864.039 259.549 862.665 257.711 861.274 255.887C861.444 255.758 861.627 255.642 861.827 255.542C863.522 254.691 865.588 255.375 866.44 257.073C866.688 257.566 866.806 258.094 866.806 258.611ZM861.824 261.688C861.185 261.368 860.641 260.845 860.296 260.158C860.145 259.856 860.043 259.546 859.986 259.231C860.601 260.048 861.215 260.867 861.824 261.688Z" fill="#C1512D"/>
<path d="M843.66 273.644C843.66 274.585 843.143 275.493 842.243 275.943C840.976 276.578 839.432 276.067 838.796 274.8C838.61 274.431 838.521 274.038 838.521 273.65C838.521 272.709 839.042 271.804 839.939 271.351C841.205 270.715 842.749 271.227 843.388 272.494C843.571 272.865 843.66 273.259 843.66 273.644Z" fill="#C1512D"/>
<path d="M818.494 304.979C818.494 305.674 818.109 306.345 817.443 306.679C816.506 307.151 815.363 306.771 814.892 305.833C814.754 305.558 814.689 305.267 814.689 304.982C814.689 304.287 815.075 303.616 815.738 303.282C816.678 302.81 817.818 303.19 818.289 304.128C818.427 304.4 818.494 304.691 818.494 304.979Z" fill="#C1512D"/>
<path d="M835.716 313.684C835.716 314.382 835.333 315.05 834.668 315.384C833.73 315.856 832.588 315.476 832.116 314.538C831.979 314.266 831.914 313.975 831.914 313.687C831.914 312.992 832.297 312.321 832.962 311.987C833.9 311.515 835.042 311.895 835.514 312.833C835.651 313.107 835.716 313.398 835.716 313.684Z" fill="#C1512D"/>
<path d="M860.394 295.049C860.394 295.747 860.008 296.415 859.346 296.75C858.408 297.221 857.265 296.841 856.794 295.903C856.656 295.631 856.592 295.34 856.592 295.052C856.592 294.357 856.974 293.686 857.64 293.352C858.578 292.88 859.72 293.26 860.192 294.198C860.329 294.473 860.394 294.764 860.394 295.049Z" fill="#C1512D"/>
<path d="M898.008 347.678C898.008 348.222 897.954 348.775 897.843 349.33C896.935 353.886 892.505 356.845 887.949 355.937C883.948 355.139 881.178 351.626 881.178 347.694C881.178 347.15 881.232 346.598 881.342 346.043C882.25 341.486 886.68 338.528 891.236 339.436C895.238 340.233 898.008 343.747 898.008 347.678Z" fill="#C1512D"/>
<path d="M912.327 318.858C912.327 319.402 912.274 319.954 912.163 320.509C911.894 321.859 911.317 323.069 910.517 324.08C908.445 319.523 906.265 314.977 903.983 310.453C904.5 310.459 905.028 310.51 905.556 310.615C909.558 311.413 912.327 314.926 912.327 318.858ZM910.457 324.155C909.002 325.952 906.844 327.1 904.489 327.262C902.301 322.584 900.006 317.923 897.607 313.293C899.135 311.572 901.337 310.51 903.705 310.453C906.057 314.999 908.307 319.569 910.457 324.155Z" fill="#C1512D"/>
<path d="M902.496 327.16C902.418 327.147 902.343 327.133 902.267 327.117C898.266 326.319 895.496 322.806 895.496 318.877C895.496 318.33 895.55 317.778 895.66 317.223C895.798 316.533 896.016 315.878 896.304 315.269C898.425 319.206 900.486 323.17 902.496 327.16Z" fill="#C1512D"/>
<path d="M862.645 350.053C862.645 350.327 862.618 350.602 862.565 350.88C862.109 353.159 859.894 354.639 857.617 354.183C855.615 353.784 854.23 352.028 854.23 350.063C854.23 349.791 854.257 349.514 854.314 349.236C854.767 346.959 856.982 345.48 859.261 345.933C861.26 346.332 862.645 348.088 862.645 350.053Z" fill="#C1512D"/>
<path d="M846.95 359.194C846.95 359.529 846.918 359.865 846.85 360.202C846.295 362.986 843.59 364.791 840.809 364.238C838.365 363.751 836.676 361.606 836.676 359.205C836.676 358.874 836.708 358.534 836.776 358.197C837.328 355.414 840.033 353.609 842.817 354.161C845.26 354.649 846.95 356.794 846.95 359.194Z" fill="#C1512D"/>
<path d="M844.724 331.037C844.724 331.372 844.692 331.708 844.624 332.048C844.069 334.829 841.364 336.637 838.581 336.081C836.139 335.594 834.447 333.449 834.447 331.051C834.447 330.717 834.48 330.38 834.547 330.04C835.102 327.26 837.807 325.452 840.588 326.007C843.032 326.494 844.724 328.639 844.724 331.037Z" fill="#C1512D"/>
<path d="M862.162 374.093C862.162 374.314 862.14 374.54 862.094 374.766C861.725 376.628 859.914 377.838 858.052 377.466C856.417 377.14 855.285 375.704 855.285 374.098C855.285 373.877 855.307 373.651 855.353 373.424C855.722 371.562 857.532 370.353 859.394 370.724C861.03 371.051 862.162 372.487 862.162 374.093Z" fill="#C1512D"/>
<path d="M897.996 365.826C897.996 366.05 897.974 366.276 897.928 366.502C897.559 368.364 895.748 369.574 893.886 369.202C892.251 368.876 891.119 367.44 891.119 365.834C891.119 365.611 891.141 365.387 891.187 365.161C891.556 363.296 893.366 362.089 895.228 362.461C896.864 362.784 897.996 364.22 897.996 365.826Z" fill="#C1512D"/>
<path d="M870.314 363.994C870.314 364.158 870.298 364.328 870.263 364.498C869.988 365.888 868.635 366.791 867.242 366.513C866.022 366.271 865.176 365.198 865.176 363.999C865.176 363.832 865.192 363.663 865.227 363.493C865.504 362.102 866.857 361.2 868.247 361.477C869.468 361.72 870.314 362.792 870.314 363.994Z" fill="#C1512D"/>
<path d="M831.06 373.647C831.06 373.771 831.049 373.895 831.025 374.019C830.82 375.051 829.818 375.72 828.788 375.512C827.883 375.334 827.258 374.539 827.258 373.65C827.258 373.529 827.271 373.402 827.296 373.278C827.5 372.249 828.503 371.581 829.532 371.786C830.435 371.966 831.06 372.758 831.06 373.647Z" fill="#C1512D"/>
<path d="M839.299 391.103C839.299 391.227 839.285 391.351 839.261 391.477C839.056 392.506 838.054 393.175 837.025 392.97C836.119 392.789 835.494 391.995 835.494 391.108C835.494 390.984 835.508 390.86 835.532 390.734C835.737 389.704 836.739 389.036 837.768 389.241C838.671 389.421 839.299 390.216 839.299 391.103Z" fill="#C1512D"/>
<path d="M870.214 391.571C870.214 391.695 870.203 391.819 870.176 391.943C869.972 392.975 868.972 393.643 867.943 393.436C867.037 393.258 866.412 392.463 866.412 391.574C866.412 391.453 866.423 391.326 866.45 391.202C866.655 390.173 867.654 389.505 868.684 389.709C869.589 389.89 870.214 390.682 870.214 391.571Z" fill="#C1512D"/>
<path d="M811.415 891.492C811.415 891.686 811.386 891.886 811.321 892.083C810.995 893.082 809.92 893.624 808.923 893.298C808.123 893.036 807.613 892.293 807.613 891.492C807.613 891.296 807.643 891.096 807.708 890.9C808.036 889.903 809.109 889.358 810.106 889.684C810.909 889.949 811.415 890.692 811.415 891.492Z" fill="#C1512D"/>
<path d="M528.606 935.441C525.249 935.445 521.891 935.406 518.531 935.326C520.032 934.23 521.905 933.621 523.904 933.719C525.677 933.806 527.296 934.436 528.606 935.441Z" fill="#C1512D"/>
<path d="M578.025 932.316C576.678 932.481 575.33 932.64 573.98 932.792C574.808 932.312 575.78 932.057 576.807 932.108C577.23 932.129 577.637 932.2 578.025 932.316Z" fill="#C1512D"/>
<path d="M685.002 960.931C685.002 961.016 684.999 961.102 684.997 961.188C684.856 964.021 682.448 966.205 679.613 966.066C676.867 965.931 674.73 963.661 674.73 960.94C674.73 960.855 674.73 960.769 674.736 960.684C674.766 960.083 674.898 959.511 675.113 958.984C677.482 958.125 679.842 957.249 682.194 956.356C683.87 957.209 685.002 958.951 685.002 960.931Z" fill="#C1512D"/>
<path d="M549.337 989.203C549.337 989.246 549.337 989.288 549.334 989.331C549.264 990.748 548.06 991.84 546.642 991.77C545.268 991.703 544.201 990.568 544.201 989.208C544.201 989.165 544.201 989.122 544.204 989.079C544.274 987.662 545.478 986.57 546.896 986.64C548.267 986.707 549.337 987.843 549.337 989.203Z" fill="#C1512D"/>
<path d="M592.819 993.944C592.819 993.976 592.817 994.007 592.817 994.039C592.766 995.088 591.874 995.896 590.826 995.844C589.807 995.794 589.018 994.955 589.018 993.947V993.853C589.071 992.804 589.963 991.996 591.011 992.048C592.027 992.097 592.819 992.937 592.819 993.944Z" fill="#C1512D"/>
<path d="M640.47 978.615V978.71C640.416 979.759 639.527 980.567 638.476 980.515C637.46 980.465 636.668 979.626 636.668 978.618C636.668 978.587 636.671 978.555 636.671 978.523C636.722 977.475 637.614 976.667 638.665 976.718C639.68 976.768 640.473 977.608 640.47 978.615Z" fill="#C1512D"/>
<path d="M668.132 988.892C668.132 988.924 668.129 988.956 668.129 988.988C668.078 990.036 667.186 990.844 666.135 990.793C665.12 990.743 664.33 989.903 664.33 988.896V988.801C664.384 987.752 665.273 986.944 666.324 986.996C667.34 987.046 668.132 987.885 668.132 988.892Z" fill="#C1512D"/>
<path d="M428.454 77.1348C428.454 79.2257 427.678 81.3221 426.118 82.9523C422.906 86.3069 417.579 86.4228 414.224 83.2109C412.513 81.5727 411.643 79.3847 411.627 77.1914C416.973 75.9411 422.346 74.7852 427.735 73.7263C428.212 74.8068 428.454 75.9708 428.454 77.1348Z" fill="#C1512D"/>
<path d="M389.627 65.5486C389.568 65.6564 389.504 65.7642 389.436 65.8693C387.272 66.4782 385.114 67.1034 382.959 67.742C382.851 67.6908 382.746 67.6369 382.641 67.5803C384.969 66.8824 387.297 66.2061 389.627 65.5486ZM389.431 65.8801C389.258 66.1441 389.059 66.3974 388.833 66.6318C387.272 68.262 384.899 68.642 382.961 67.742C385.125 67.1007 387.281 66.4809 389.431 65.8801Z" fill="#C1512D"/>
<path d="M362.1 136.285C361.951 137.308 361.496 138.3 360.725 139.103C359.507 140.375 357.794 140.887 356.18 140.62C358.025 139.146 360.001 137.699 362.1 136.285Z" fill="#C1512D"/>
<path d="M399.192 95.7802L396.573 96.4781C395.614 96.7422 394.649 96.99 393.688 97.2433C393.733 97.1921 393.779 97.1436 393.825 97.0924C395.253 95.6024 397.36 95.1605 399.192 95.7802Z" fill="#C1512D"/>
<path d="M374.806 99.7065C374.806 100.178 374.631 100.652 374.278 101.019C373.553 101.779 372.348 101.805 371.591 101.078C371.201 100.706 371.004 100.205 371.004 99.7038C371.004 99.2323 371.179 98.758 371.532 98.3916C372.257 97.6317 373.461 97.6075 374.221 98.3323C374.609 98.7041 374.806 99.2053 374.806 99.7065Z" fill="#C1512D"/>
<path d="M340.328 87.5727C337.205 88.7691 334.098 89.9978 331.002 91.2588C330.959 90.992 330.938 90.7226 330.938 90.4558C330.938 89.1786 331.412 87.8988 332.363 86.9045C334.324 84.854 337.577 84.7839 339.627 86.7455C339.894 87.0015 340.126 87.279 340.328 87.5727Z" fill="#C1512D"/>
<path d="M327.432 122.194C326.228 122.757 325.026 123.329 323.824 123.905C323.929 123.48 324.142 123.073 324.466 122.733C325.255 121.911 326.459 121.725 327.432 122.194Z" fill="#C1512D"/>
<path d="M424.988 484.41L441.036 485.747L454.41 491.096L462.434 496.446L478.482 511.157L525.289 557.964L538.663 568.663L552.036 580.699L557.386 582.036L585.47 565.988L600.181 556.627L604.193 555.289H617.566L626.928 559.301L634.952 564.651L651 579.361L669.723 594.072L688.446 607.446L709.843 620.819L707.169 622.157H704.494L740.602 639.542L747.289 642.217L741.94 643.554L708.506 632.855L691.12 624.831L688.446 626.169L693.795 630.181L687.108 628.843L661.699 615.47L633.614 596.747L617.566 584.711L608.205 586.048L582.795 599.422L578.783 600.759L596.169 612.795L616.229 624.831L624.253 628.843L620.241 630.181L600.181 620.819L625.59 634.193L655.012 646.229L649.663 647.566L628.265 640.88L616.229 638.205L592.157 627.506L589.482 628.843L597.506 632.855L593.494 634.193L568.084 622.157L541.337 606.108L514.59 587.386L495.867 572.675L473.133 553.952L459.759 541.916L442.374 528.542L430.337 531.217L429 536.566L411.614 552.614L398.241 564.651L383.53 576.687L376.843 582.036L374.169 580.699L388.88 567.325L403.59 555.289L406.265 551.277L390.217 565.988L371.494 580.699L350.096 598.084L327.361 614.133L305.964 627.506L279.217 643.554L265.843 648.904L247.12 658.265L233.747 662.277L235.084 659.602L264.506 643.554L265.843 639.542L284.566 627.506L309.976 608.783L327.361 594.072L315.325 602.096L296.602 616.807L289.916 619.482L275.205 628.843L257.819 639.542L253.807 638.205L245.783 642.217V646.229L240.434 647.566L239.096 646.229L209.675 659.602L207 658.265L211.012 655.59L209.675 652.916L232.41 640.88L261.831 620.819L265.843 616.807L248.458 628.843L245.783 627.506L264.506 612.795L279.217 600.759L296.602 584.711L307.301 575.349L319.337 563.313L330.036 553.952L343.41 540.578L354.108 531.217L374.169 512.494L391.554 499.121L408.94 488.422L424.988 484.41Z" fill="#C1512D"/>
<path d="M364.808 703.735H478.482L592.157 707.747L664.374 710.422V713.096L671.061 714.434L716.531 717.108L717.868 719.783L680.422 722.458H597.506V725.132H624.253V726.47L570.759 727.807L569.422 729.145L530.639 730.482L454.41 731.819H407.603L339.398 729.145L309.976 726.47L292.591 723.795L285.904 722.458L283.229 719.783L253.808 717.108V714.434L315.326 706.41L364.808 703.735Z" fill="#C1512D"/>
<path d="M420.976 750.542H521.277L566.747 753.217L585.47 755.892L614.892 757.229L613.554 759.904L552.036 762.578L550.699 765.253H445.048L422.313 763.916L415.627 762.578L400.916 761.241V759.904L348.759 757.229L347.422 754.554L410.277 751.88L420.976 750.542Z" fill="#C1512D"/>
<path d="M427.663 782.639H446.385L474.47 783.976L478.482 785.313L505.229 786.651L502.554 789.325L474.47 790.663L465.108 792H415.626L366.145 787.988V786.651L394.229 785.313L403.59 783.976L427.663 782.639Z" fill="#C1512D"/>
<path d="M425.458 344H441.506L456.217 349.349L468.253 358.711L474.94 366.735L473.602 372.084H477.614L478.952 381.446L477.614 384.12L481.627 385.458V398.831L477.614 412.205L468.253 426.916L457.554 434.94L452.205 436.277L444.181 440.289H425.458L413.422 437.614V433.602L404.06 430.928L394.699 424.241L388.012 413.542L384 401.506V384.12L389.349 369.41L398.711 357.373L409.41 349.349L421.446 345.337L425.458 344Z" fill="#C1512D"/>
<path d="M596.888 377.552H656.744V387.614H596.888V377.552ZM593.276 402.836H653.39V412.812H593.276V402.836ZM583.386 430.184H661.13V440.246H583.386V430.184ZM616.754 361.9H627.59V435.086H616.754V361.9ZM596.888 363.018L607.552 365.426C606.348 369.841 604.857 374.198 603.08 378.498C601.303 382.798 599.382 386.811 597.318 390.538C595.254 394.207 593.104 397.418 590.868 400.17C590.18 399.539 589.263 398.851 588.116 398.106C587.027 397.303 585.88 396.529 584.676 395.784C583.472 395.039 582.44 394.437 581.58 393.978C583.873 391.57 585.966 388.703 587.858 385.378C589.807 382.053 591.527 378.469 593.018 374.628C594.566 370.787 595.856 366.917 596.888 363.018Z" fill="#C1512D"/>
<path d="M627.504 310.158H637.91V333.378C637.91 334.811 638.082 335.729 638.426 336.13C638.827 336.474 639.687 336.646 641.006 336.646C641.35 336.646 641.837 336.646 642.468 336.646C643.156 336.646 643.901 336.646 644.704 336.646C645.507 336.646 646.252 336.646 646.94 336.646C647.628 336.646 648.173 336.646 648.574 336.646C649.434 336.646 650.065 336.388 650.466 335.872C650.925 335.299 651.24 334.181 651.412 332.518C651.641 330.798 651.813 328.247 651.928 324.864C652.616 325.38 653.505 325.925 654.594 326.498C655.741 327.071 656.916 327.559 658.12 327.96C659.381 328.361 660.442 328.705 661.302 328.992C660.958 333.521 660.385 337.076 659.582 339.656C658.779 342.179 657.575 343.927 655.97 344.902C654.365 345.877 652.215 346.364 649.52 346.364C649.004 346.364 648.287 346.364 647.37 346.364C646.453 346.364 645.478 346.364 644.446 346.364C643.414 346.364 642.439 346.364 641.522 346.364C640.662 346.364 640.003 346.364 639.544 346.364C636.276 346.364 633.782 345.963 632.062 345.16C630.342 344.357 629.138 343.01 628.45 341.118C627.819 339.226 627.504 336.675 627.504 333.464V310.158ZM583.73 302.504H660.528V312.48H583.73V302.504ZM597.92 278.596H653.734V288.486H597.92V278.596ZM604.37 310.244H615.206C614.805 314.315 614.145 318.213 613.228 321.94C612.368 325.667 610.992 329.164 609.1 332.432C607.265 335.643 604.714 338.567 601.446 341.204C598.235 343.899 594.021 346.221 588.804 348.17C588.46 347.195 587.915 346.135 587.17 344.988C586.425 343.899 585.622 342.809 584.762 341.72C583.959 340.688 583.157 339.799 582.354 339.054C586.941 337.563 590.61 335.815 593.362 333.808C596.171 331.801 598.293 329.565 599.726 327.1C601.217 324.577 602.277 321.911 602.908 319.102C603.596 316.293 604.083 313.34 604.37 310.244ZM597.748 268.19L608.24 270.254C607.38 273.637 606.291 277.163 604.972 280.832C603.711 284.501 602.277 288.027 600.672 291.41C599.067 294.793 597.289 297.774 595.34 300.354C594.537 299.781 593.591 299.207 592.502 298.634C591.413 298.003 590.295 297.43 589.148 296.914C588.001 296.398 587.027 295.997 586.224 295.71C588.059 293.302 589.721 290.521 591.212 287.368C592.76 284.215 594.079 280.975 595.168 277.65C596.315 274.267 597.175 271.114 597.748 268.19ZM616.84 266.9H627.332V305.514H616.84V266.9Z" fill="#C1512D"/>
</svg>
